<?xml version="1.0" encoding="utf-8"?>
<!-- Generator: Adobe Illustrator 15.1.0, SVG Export Plug-In  -->
<!DOCTYPE svg PUBLIC "-//W3C//DTD SVG 1.1//EN" "http://www.w3.org/Graphics/SVG/1.1/DTD/svg11.dtd" [
	<!ENTITY ns_flows "http://ns.adobe.com/Flows/1.0/">
]>
<svg version="1.1"
	 xmlns="http://www.w3.org/2000/svg" xmlns:xlink="http://www.w3.org/1999/xlink" xmlns:a="http://ns.adobe.com/AdobeSVGViewerExtensions/3.0/"
	 x="0px" y="0px" width="274px" height="47px" viewBox="-7.651 -9.098 274 47"
	 overflow="visible" enable-background="new -7.651 -9.098 274 47" xml:space="preserve">
<defs>
</defs>
<path fill="#FFFFFF" d="M109.27,30.979c0,0.934-0.778,1.712-1.68,1.712c-0.966,0-1.712-0.778-1.712-1.712V12.897c0,0,0,0,0-0.032
	c-0.031-0.529,0.218-1.089,0.685-1.432c0.778-0.528,1.835-0.373,2.365,0.374l10.053,13.911V12.897c0-0.903,0.746-1.681,1.68-1.681
	c0.934,0,1.712,0.778,1.712,1.681v18.082c0,0.934-0.778,1.712-1.712,1.712c-0.498,0-0.965-0.248-1.275-0.623
	c-0.063-0.062-0.125-0.123-0.156-0.188l-9.959-13.817L109.27,30.979L109.27,30.979z"/>
<path fill="#FFFFFF" d="M6.097,30.979V12.616c0-0.963,0.747-1.711,1.712-1.711h3.673c6.005,0,10.862,4.886,10.862,10.861
	c0,6.039-4.855,10.925-10.862,10.925H7.809C6.843,32.69,6.097,31.912,6.097,30.979z M9.55,29.235h1.931
	c4.107-0.03,7.406-3.33,7.406-7.47c0-4.076-3.299-7.406-7.406-7.406H9.55V29.235z"/>
<path fill="#FFFFFF" d="M24.663,30.979V12.616c0-0.963,0.746-1.711,1.711-1.711h0.032c0,0,0,0,0.062,0h10.083
	c0.902,0,1.712,0.747,1.712,1.711c0,0.966-0.81,1.744-1.712,1.744h-8.434v5.694h7.251c0.934,0,1.712,0.811,1.712,1.712
	c0,0.965-0.779,1.742-1.712,1.742h-7.251v5.728h8.434c0.902,0,1.712,0.777,1.712,1.741c0,0.934-0.81,1.712-1.712,1.712H26.468
	c-0.062,0-0.062-0.03-0.062-0.03l-0.031,0.03C25.409,32.69,24.663,31.912,24.663,30.979z"/>
<path fill="#FFFFFF" d="M48.327,32.379c-0.062-0.062-0.125-0.094-0.218-0.155c0-0.031-0.031-0.031-0.031-0.093
	c-0.062-0.063-0.125-0.125-0.156-0.187c0,0-0.031,0-0.031-0.032c-0.032-0.061-0.093-0.188-0.156-0.247L40.11,13.488
	c-0.373-0.84,0.031-1.868,0.933-2.209c0.841-0.373,1.837,0.031,2.21,0.903l6.07,14.407l6.069-14.408
	c0.374-0.872,1.4-1.276,2.241-0.903c0.871,0.342,1.276,1.369,0.933,2.21l-7.687,18.176c-0.031,0.061-0.062,0.187-0.125,0.248
	c0,0.03,0,0.03-0.031,0.03c-0.031,0.062-0.124,0.125-0.155,0.187c-0.032,0.063-0.032,0.063-0.062,0.094
	c-0.062,0.062-0.125,0.094-0.187,0.155c0,0,0,0-0.062,0.031c-0.063,0.031-0.156,0.125-0.249,0.155c-0.032,0-0.032,0-0.062,0.031
	c-0.093,0-0.157,0.031-0.249,0.062c0,0-0.031,0-0.062,0c-0.125,0.032-0.218,0.032-0.311,0.032c-0.093,0-0.218,0-0.312-0.032
	c0,0-0.031,0-0.062,0c-0.062-0.031-0.186-0.062-0.249-0.062c0-0.031-0.032-0.031-0.032-0.031s0,0-0.031,0
	c-0.062-0.03-0.188-0.124-0.281-0.187C48.358,32.379,48.358,32.379,48.327,32.379z"/>
<path fill="#FFFFFF" d="M59.7,23.115c0,1.347-1.091,2.44-2.439,2.44H57.16c-1.347,0-2.438-1.094-2.438-2.44v-0.101
	c0-1.348,1.091-2.44,2.438-2.44h0.101c1.348,0,2.439,1.093,2.439,2.44V23.115z"/>
<circle fill="none" stroke="#FFFFFF" stroke-width="0.6715" stroke-miterlimit="10" cx="91.144" cy="19.984" r="6.511"/>
<circle fill="none" stroke="#FFFFFF" stroke-width="0.6715" stroke-miterlimit="10" cx="91.144" cy="19.984" r="11.621"/>
<path fill="none" stroke="#FFFFFF" stroke-width="0.6715" stroke-miterlimit="10" d="M91.144,2.896
	c-7.763,0-14.313,5.178-16.395,12.266c0.397,0.108,0.692,0.466,0.692,0.898c0,0.517-0.418,0.934-0.934,0.934
	c-0.062,0-0.123-0.007-0.184-0.019c-0.173,0.978-0.27,1.982-0.27,3.007c0,9.44,7.652,17.091,17.09,17.091
	c9.439,0,17.089-7.653,17.089-17.091C108.233,10.546,100.582,2.896,91.144,2.896z"/>
<path fill="none" stroke="#FFFFFF" stroke-width="0.6715" stroke-miterlimit="10" d="M74.749,15.164
	c-0.078-0.021-0.158-0.036-0.243-0.036c-0.515,0-0.933,0.418-0.933,0.934c0,0.454,0.323,0.831,0.75,0.915"/>
<path fill="none" stroke="#FFFFFF" stroke-width="0.6715" stroke-miterlimit="10" d="M74.324,16.976
	c0.061,0.011,0.121,0.018,0.184,0.018c0.516,0,0.934-0.417,0.934-0.934c0-0.432-0.294-0.79-0.692-0.898"/>
<circle fill="none" stroke="#FFFFFF" stroke-width="0.6715" stroke-miterlimit="10" cx="87.006" cy="30.847" r="0.805"/>
<path fill="#FFFFFF" d="M99.744,3.895c-2.323-1.278-4.302-1.811-6.631-2.122c-0.648-0.087-2.594-0.516-3.315,0.198
	c-0.578,0.574-0.465,1.329,0,1.791c0.646,0.639,2.279,0.399,3.084,0.498c3.049,0.375,6.387,1.746,9.283,4.643
	c2.971,2.97,4.248,6.319,4.643,9.284c0.118,0.876-0.122,2.467,0.531,3.116c0.271,0.269,0.839,0.523,1.26,0.331
	c1.159-0.528,0.926-1.625,0.862-2.519c-0.307-4.243-1.963-8.929-6.367-12.798C102.08,5.424,100.917,4.539,99.744,3.895z
	 M94.671,7.575c-0.752-0.232-1.528-0.424-2.387-0.531c-0.495-0.062-1.88-0.25-2.421,0.233c-0.653,0.579-0.553,1.378-0.066,1.857
	c0.491,0.482,1.44,0.379,2.121,0.465c2.22,0.274,4.352,0.989,6.466,3.083c2.159,2.139,2.865,4.279,3.116,6.433
	c0.086,0.739-0.09,1.61,0.432,2.155c0.425,0.441,1.165,0.689,1.824,0.032c0.665-0.666,0.358-1.847,0.23-2.752
	c-0.166-1.186-0.395-1.925-0.695-2.751c-0.656-1.799-1.8-3.796-3.78-5.504C97.888,8.894,96.466,8.129,94.671,7.575z M92.915,12.714
	c-0.848-0.243-2.372-0.771-3.15,0.032c-0.437,0.45-0.485,1.324,0.034,1.824c0.488,0.472,1.332,0.302,2.056,0.465
	c0.668,0.149,1.565,0.482,2.254,1.062c1.126,0.945,1.7,2.078,1.923,3.05c0.178,0.775,0.032,1.679,0.497,2.156
	c0.45,0.46,1.383,0.579,1.957-0.166c0.543-0.708,0.112-2.444-0.166-3.282c-0.373-1.121-1.354-2.566-2.189-3.316
	C95.076,13.593,94.169,13.073,92.915,12.714z M89.201,21.27c0.775,1.052,2.343,1.569,3.58,0.33c1.04-1.039,0.91-2.645-0.364-3.547
	C90.36,16.595,87.728,19.271,89.201,21.27z"/>
<path fill="#FFFFFF" d="M103.092,6.315c4.404,3.871,6.06,8.556,6.366,12.798c0.065,0.894,0.298,1.991-0.862,2.521
	c-0.422,0.19-0.989-0.063-1.259-0.333c-0.654-0.648-0.414-2.24-0.532-3.116c-0.395-2.965-1.671-6.315-4.642-9.284
	c-2.895-2.896-6.234-4.268-9.283-4.643c-0.805-0.098-2.438,0.144-3.083-0.497c-0.466-0.462-0.58-1.217,0-1.791
	c0.721-0.715,2.667-0.286,3.315-0.199c2.329,0.311,4.309,0.844,6.632,2.122C100.917,4.539,102.08,5.424,103.092,6.315z"/>
<path fill="#FFFFFF" d="M99.511,10.293c1.981,1.708,3.125,3.704,3.78,5.504c0.3,0.827,0.531,1.565,0.695,2.75
	c0.126,0.907,0.434,2.087-0.23,2.752c-0.659,0.659-1.399,0.408-1.824-0.033c-0.522-0.544-0.346-1.416-0.431-2.154
	c-0.252-2.154-0.958-4.294-3.117-6.432c-2.113-2.094-4.246-2.81-6.465-3.083c-0.681-0.084-1.631,0.019-2.122-0.465
	c-0.487-0.48-0.586-1.277,0.065-1.857c0.542-0.481,1.925-0.294,2.421-0.232c0.858,0.106,1.634,0.298,2.387,0.53
	C96.466,8.129,97.888,8.894,99.511,10.293z"/>
<path fill="#FFFFFF" d="M96.13,14.537c0.836,0.75,1.817,2.195,2.189,3.316c0.277,0.84,0.708,2.574,0.166,3.284
	c-0.573,0.745-1.507,0.626-1.957,0.166c-0.466-0.478-0.319-1.381-0.497-2.156c-0.224-0.971-0.798-2.105-1.923-3.05
	c-0.689-0.579-1.587-0.913-2.255-1.062c-0.725-0.163-1.567,0.007-2.056-0.465c-0.519-0.5-0.47-1.374-0.034-1.824
	c0.777-0.803,2.301-0.274,3.149-0.032C94.169,13.073,95.076,13.593,96.13,14.537z"/>
<path fill="#FFFFFF" d="M92.417,18.053c1.274,0.903,1.404,2.508,0.364,3.547c-1.237,1.239-2.805,0.722-3.58-0.33
	C87.728,19.271,90.36,16.595,92.417,18.053z"/>
<path fill="#FFFFFF" d="M60.299,21.486c0.032-6.162,5.197-11.172,11.421-11.204c2.739,0,5.228,0.902,7.189,2.427
	c0.747,0.623,0.872,1.712,0.311,2.489c-0.622,0.778-1.773,0.902-2.489,0.342c-1.369-1.119-3.081-1.711-5.011-1.711
	c-2.147,0-4.139,0.871-5.602,2.241c-1.4,1.431-2.272,3.298-2.272,5.414s0.872,4.047,2.272,5.415c1.463,1.37,3.454,2.242,5.602,2.242
	c1.93,0,3.61-0.591,5.011-1.711c0.715-0.531,1.867-0.404,2.489,0.342c0.56,0.778,0.436,1.899-0.311,2.489
	c-1.96,1.523-4.451,2.429-7.189,2.429C65.496,32.69,60.33,27.68,60.299,21.486z"/>
<path fill="#FFFFFF" d="M130.533,30.979c0,0.934-0.776,1.712-1.68,1.712c-0.965,0-1.712-0.778-1.712-1.712V12.897c0,0,0,0,0-0.032
	c-0.031-0.529,0.219-1.089,0.685-1.432c0.779-0.528,1.839-0.373,2.366,0.374l10.054,13.911V12.897c0-0.903,0.745-1.681,1.681-1.681
	c0.933,0,1.712,0.778,1.712,1.681v18.082c0,0.934-0.779,1.712-1.712,1.712c-0.498,0-0.966-0.248-1.276-0.623
	c-0.062-0.062-0.126-0.123-0.156-0.188l-9.959-13.817v12.916H130.533z"/>
<path fill="#FFFFFF" d="M148.4,30.979V12.616c0-0.963,0.745-1.711,1.711-1.711h0.032c0,0,0,0,0.062,0h10.083
	c0.903,0,1.712,0.747,1.712,1.711c0,0.966-0.809,1.744-1.712,1.744h-8.433v5.694h7.25c0.934,0,1.713,0.811,1.713,1.712
	c0,0.965-0.779,1.742-1.713,1.742h-7.25v5.728h8.433c0.903,0,1.712,0.777,1.712,1.741c0,0.934-0.809,1.712-1.712,1.712h-10.083
	c-0.062,0-0.062-0.03-0.062-0.03l-0.032,0.03C149.145,32.69,148.4,31.912,148.4,30.979z"/>
<path fill="#FFFFFF" d="M163.053,21.486c0.031-6.162,5.196-11.172,11.421-11.204c2.739,0,5.23,0.902,7.189,2.427
	c0.746,0.623,0.872,1.712,0.312,2.489c-0.623,0.778-1.774,0.902-2.49,0.342c-1.369-1.119-3.082-1.711-5.012-1.711
	c-2.147,0-4.139,0.871-5.602,2.241c-1.399,1.431-2.271,3.298-2.271,5.414s0.872,4.047,2.271,5.415
	c1.463,1.37,3.454,2.242,5.602,2.242c1.929,0,3.61-0.591,5.012-1.711c0.715-0.531,1.867-0.404,2.49,0.342
	c0.56,0.778,0.434,1.899-0.312,2.489c-1.959,1.523-4.449,2.429-7.189,2.429C168.25,32.69,163.084,27.68,163.053,21.486z"/>
<path fill="#FFFFFF" d="M199.025,14.36h-4.946v16.619c0,0.966-0.747,1.712-1.712,1.712c-0.934,0-1.713-0.746-1.713-1.712V14.36
	h-4.917c-0.965,0-1.712-0.811-1.712-1.744c0-0.964,0.747-1.711,1.712-1.711h13.29c0.934,0,1.712,0.747,1.712,1.711
	C200.737,13.549,199.959,14.36,199.025,14.36z"/>
<path fill="#FFFFFF" d="M203.121,12.616c0-0.963,0.747-1.711,1.712-1.711c0.934,0,1.743,0.747,1.743,1.711v18.363
	c0,0.966-0.81,1.712-1.743,1.712c-0.965,0-1.712-0.746-1.712-1.712V12.616z"/>
<path fill="#FFFFFF" d="M227.484,13.612c1.93,2.053,3.144,4.792,3.144,7.874c0,3.082-1.213,5.851-3.144,7.874
	c-1.838,2.023-4.575,3.33-7.438,3.33c-2.989,0-5.728-1.307-7.627-3.33c-1.928-2.023-3.08-4.792-3.08-7.874
	c0-3.082,1.152-5.821,3.08-7.874c1.899-2.054,4.638-3.33,7.627-3.33C222.908,10.282,225.646,11.558,227.484,13.612z M227.077,21.486
	c0-2.117-0.839-4.078-2.115-5.447c-1.308-1.399-3.05-2.209-4.916-2.209c-1.993,0-3.734,0.809-5.044,2.209
	c-1.307,1.369-2.115,3.33-2.115,5.447c0,2.116,0.809,4.078,2.115,5.414c1.31,1.401,3.051,2.242,5.044,2.242
	c1.866,0,3.609-0.841,4.916-2.242C226.238,25.564,227.077,23.603,227.077,21.486z"/>
<path fill="#FFFFFF" d="M237.475,30.979c0,0.934-0.778,1.712-1.681,1.712c-0.965,0-1.712-0.778-1.712-1.712V12.897c0,0,0,0,0-0.032
	c-0.031-0.529,0.219-1.089,0.687-1.432c0.777-0.528,1.836-0.373,2.364,0.374l10.053,13.911V12.897c0-0.903,0.747-1.681,1.681-1.681
	c0.933,0,1.711,0.778,1.711,1.681v18.082c0,0.934-0.778,1.712-1.711,1.712c-0.497,0-0.964-0.248-1.274-0.623
	c-0.064-0.062-0.126-0.123-0.157-0.188l-9.96-13.817V30.979L237.475,30.979z"/>
<path display="none" fill="#FFFFFF" d="M0,42.952V14.676c0-1.486,1.17-2.636,2.681-2.636h5.751c9.407,0,17.01,7.524,17.01,16.726
	c0,9.297-7.603,16.822-17.01,16.822H2.681C1.17,45.588,0,44.391,0,42.952z M5.41,40.268h3.022c6.433-0.047,11.6-5.127,11.6-11.5
	c0-6.278-5.167-11.407-11.6-11.407H5.41V40.268z"/>
<path display="none" fill="#FFFFFF" d="M27.876,42.952V14.676c0-1.486,1.17-2.636,2.681-2.636h0.048c0,0,0,0,0.098,0h15.792
	c1.414,0,2.681,1.15,2.681,2.636c0,1.486-1.267,2.684-2.681,2.684H33.287v8.77h11.356c1.462,0,2.681,1.247,2.681,2.636
	c0,1.485-1.219,2.685-2.681,2.685H33.287v8.817h13.208c1.414,0,2.681,1.196,2.681,2.685c0,1.438-1.267,2.637-2.681,2.637H30.703
	c-0.098,0-0.098-0.048-0.098-0.048l-0.048,0.048C29.046,45.588,27.876,44.391,27.876,42.952z"/>
<path display="none" fill="#FFFFFF" d="M64.692,45.109c-0.098-0.096-0.195-0.146-0.341-0.24c0-0.047-0.048-0.047-0.048-0.145
	c-0.098-0.097-0.195-0.19-0.244-0.287c0,0-0.049,0-0.049-0.047c-0.048-0.098-0.146-0.289-0.244-0.386L51.825,16.018
	c-0.584-1.294,0.049-2.875,1.462-3.403c1.316-0.575,2.875,0.048,3.46,1.39l9.504,22.188l9.504-22.188
	c0.585-1.342,2.193-1.965,3.509-1.39c1.365,0.527,1.999,2.109,1.462,3.403L68.689,44.006c-0.049,0.096-0.098,0.288-0.195,0.385
	c0,0.047,0,0.047-0.049,0.047c-0.049,0.098-0.195,0.191-0.244,0.287c-0.049,0.099-0.049,0.099-0.098,0.146
	c-0.097,0.096-0.195,0.146-0.292,0.239c0,0,0,0-0.097,0.049c-0.098,0.048-0.244,0.189-0.39,0.238c-0.049,0-0.049,0-0.098,0.047
	c-0.146,0-0.244,0.051-0.39,0.099c0,0-0.049,0-0.098,0c-0.195,0.048-0.341,0.048-0.487,0.048s-0.341,0-0.487-0.048
	c0,0-0.049,0-0.098,0c-0.097-0.048-0.292-0.099-0.39-0.099c0-0.047-0.049-0.047-0.049-0.047s0,0-0.049,0
	c-0.098-0.049-0.292-0.19-0.438-0.287C64.741,45.109,64.741,45.109,64.692,45.109z"/>
<path display="none" fill="#FFFFFF" d="M111.042,41.85c-3.071,2.35-6.97,3.738-11.259,3.738c-9.749,0-17.839-7.717-17.887-17.254
	c0.048-9.489,8.139-17.205,17.887-17.253c4.289,0,8.188,1.39,11.259,3.738c1.169,0.958,1.364,2.636,0.487,3.834
	c-0.975,1.198-2.779,1.39-3.899,0.527c-2.145-1.725-4.825-2.636-7.847-2.636c-3.363,0-6.482,1.342-8.773,3.451
	c-2.194,2.205-3.559,5.08-3.559,8.339s1.365,6.23,3.559,8.339c2.291,2.109,7.513,3.675,10.875,3.675"/>
<path display="none" fill="#FFFFFF" d="M158.587,42.952c0,1.438-1.219,2.637-2.631,2.637c-1.512,0-2.682-1.198-2.682-2.637V15.107
	c0,0,0,0,0-0.048c-0.049-0.815,0.342-1.677,1.072-2.204c1.219-0.815,2.876-0.575,3.704,0.575l15.743,21.421V15.107
	c0-1.39,1.17-2.588,2.632-2.588s2.681,1.198,2.681,2.588v27.844c0,1.438-1.219,2.637-2.681,2.637c-0.779,0-1.511-0.384-1.999-0.959
	c-0.098-0.096-0.194-0.191-0.243-0.288l-15.597-21.278V42.952L158.587,42.952z"/>
<path display="none" fill="#FFFFFF" d="M191.889,42.952c0,1.438-1.218,2.637-2.632,2.637c-1.512,0-2.682-1.198-2.682-2.637V15.107
	c0,0,0,0,0-0.048c-0.047-0.815,0.342-1.677,1.073-2.204c1.22-0.815,2.876-0.575,3.704,0.575l15.743,21.421V15.107
	c0-1.39,1.169-2.588,2.632-2.588c1.462,0,2.68,1.198,2.68,2.588v27.844c0,1.438-1.218,2.637-2.68,2.637
	c-0.779,0-1.511-0.384-1.999-0.959c-0.098-0.096-0.194-0.191-0.244-0.288l-15.596-21.278V42.952z"/>
<path display="none" fill="#FFFFFF" d="M219.867,42.952V14.676c0-1.486,1.17-2.636,2.683-2.636h0.05c0,0,0,0,0.098,0h15.793
	c1.412,0,2.68,1.15,2.68,2.636c0,1.486-1.269,2.684-2.68,2.684h-13.211v8.771h11.355c1.462,0,2.681,1.246,2.681,2.637
	c0,1.484-1.219,2.684-2.681,2.684h-11.355v8.818h13.209c1.412,0,2.68,1.195,2.68,2.684c0,1.438-1.268,2.637-2.68,2.637h-15.793
	c-0.097,0-0.097-0.048-0.097-0.048l-0.05,0.048C221.037,45.588,219.867,44.391,219.867,42.952z"/>
<path display="none" fill="#FFFFFF" d="M265.498,17.3C265.498,17.3,267.807,18.106,265.498,17.3
	c-2.312-0.806-4.793-0.755-4.793-0.755c-3.363,0-6.482,1.342-8.772,3.451c-2.192,2.205-3.56,5.08-3.56,8.339s1.365,6.231,3.56,8.339
	c2.29,2.109,5.409,3.451,8.772,3.451c3.021,0,5.652-0.911,7.848-2.637c1.121-0.814,2.924-0.622,3.898,0.527
	c0.877,1.196,0.683,2.924-0.488,3.834c-3.069,2.349-6.969,3.737-11.258,3.737c-9.748,0-17.838-7.717-17.889-17.254
	c0.051-9.489,8.141-17.205,17.889-17.253c4.289,0,8.188,1.39,11.258,3.738L265.498,17.3z"/>
<path display="none" fill="#FFFFFF" d="M12.703,40.286h18.626c1.994,0,3.781,1.198,3.781,2.685c0,1.438-1.787,2.635-3.781,2.635
	H9.06c-0.138,0-0.138-0.047-0.138-0.047l-0.068,0.047c-2.131,0-3.781-1.196-3.781-2.635C5.074,42.969,4.565,39.979,12.703,40.286z"
	/>
<path display="none" fill="#FFFFFF" d="M37.136,12.011h17.2c1.84,0,3.491,1.198,3.491,2.684c0,1.438-1.651,2.636-3.491,2.636H33.773
	c-0.127,0-0.127-0.047-0.127-0.047l-0.063,0.047c-1.969,0-3.492-1.198-3.492-2.636C30.091,14.695,29.622,11.703,37.136,12.011z"/>
<path display="none" fill="#FFFFFF" d="M104.959,40.286h22.265c2.381,0,4.518,1.198,4.518,2.685c0,1.438-2.137,2.635-4.518,2.635
	h-26.618c-0.165,0-0.165-0.047-0.165-0.047l-0.082,0.047c-2.548,0-4.519-1.196-4.519-2.635
	C95.841,42.969,95.233,39.979,104.959,40.286z"/>
<path display="none" fill="#FFFFFF" d="M131.52,40.286h22.265c2.383,0,4.519,1.198,4.519,2.685c0,1.438-2.136,2.635-4.519,2.635
	h-26.618c-0.164,0-0.164-0.047-0.164-0.047l-0.081,0.047c-2.549,0-4.52-1.196-4.52-2.635
	C122.402,42.969,121.795,39.979,131.52,40.286z"/>
<path display="none" fill="#FFFFFF" d="M74.121,26.596h10.571c1.131,0,2.145,1.197,2.145,2.684c0,1.438-1.014,2.637-2.145,2.637
	H72.054c-0.077,0-0.077-0.048-0.077-0.048l-0.04,0.048c-1.21,0-2.146-1.198-2.146-2.637C69.791,29.279,69.503,26.287,74.121,26.596z
	"/>
<path display="none" fill="#FFFFFF" d="M211.785,12.095h11.334c1.213,0,2.299,1.198,2.299,2.684c0,1.438-1.086,2.636-2.299,2.636
	h-13.552c-0.083,0-0.083-0.048-0.083-0.048l-0.042,0.048c-1.297,0-2.301-1.198-2.301-2.636
	C207.141,14.779,206.833,11.787,211.785,12.095z"/>
<path display="none" fill="#FFFFFF" d="M240.294,40.249h18.169c1.942,0,3.687,1.198,3.687,2.685c0,1.438-1.742,2.635-3.687,2.635
	H236.74c-0.134,0-0.134-0.047-0.134-0.047l-0.065,0.047c-2.08,0-3.688-1.195-3.688-2.635
	C232.853,42.934,232.357,39.941,240.294,40.249z"/>
<path display="none" fill="#FFFFFF" d="M268.397,12.038h12.453c1.332,0,2.526,1.198,2.526,2.684c0,1.438-1.194,2.636-2.526,2.636
	h-14.89c-0.09,0-0.09-0.048-0.09-0.048l-0.047,0.048c-1.427,0-2.526-1.198-2.526-2.636C263.298,14.722,262.958,11.73,268.397,12.038
	z"/>
<path display="none" fill="#FFFFFF" d="M37.136,40.125h17.2c1.84,0,3.491,1.198,3.491,2.686c0,1.438-1.651,2.637-3.491,2.637H33.773
	c-0.127,0-0.127-0.051-0.127-0.051l-0.063,0.051c-1.969,0-3.492-1.198-3.492-2.637C30.091,42.811,29.622,39.818,37.136,40.125z"/>
<circle display="none" fill="none" stroke="#000000" stroke-width="0.5505" stroke-miterlimit="10" cx="128.984" cy="21.72" r="7.678"/>
<circle display="none" fill="none" stroke="#000000" stroke-width="0.5505" stroke-miterlimit="10" cx="128.984" cy="21.72" r="13.703"/>
<circle display="none" fill="none" stroke="#000000" stroke-width="0.5505" stroke-miterlimit="10" cx="128.984" cy="21.719" r="20.151"/>
<circle display="none" fill="#FFFFFF" stroke="#000000" stroke-width="0.5505" stroke-miterlimit="10" cx="109.367" cy="17.093" r="1.101"/>
<circle display="none" fill="#FFFFFF" stroke="#000000" stroke-width="0.5505" stroke-miterlimit="10" cx="124.106" cy="34.528" r="0.948"/>
<path display="none" fill="#FFFFFF" d="M139.126,2.746c-2.738-1.507-5.072-2.135-7.819-2.502c-0.765-0.103-3.059-0.608-3.908,0.235
	c-0.683,0.676-0.549,1.567,0,2.111c0.76,0.754,2.688,0.47,3.636,0.586c3.596,0.442,7.532,2.059,10.946,5.474
	c3.503,3.502,5.009,7.453,5.476,10.947c0.138,1.033-0.146,2.911,0.625,3.676c0.318,0.315,0.988,0.617,1.485,0.392
	c1.367-0.625,1.093-1.918,1.017-2.973c-0.36-5.002-2.314-10.528-7.508-15.092C141.881,4.55,140.51,3.507,139.126,2.746z
	 M133.144,7.086c-0.888-0.274-1.803-0.5-2.814-0.625c-0.583-0.073-2.215-0.295-2.854,0.273c-0.77,0.684-0.653,1.625-0.078,2.189
	c0.578,0.569,1.699,0.448,2.502,0.547c2.617,0.324,5.131,1.167,7.623,3.636c2.547,2.521,3.379,5.046,3.676,7.586
	c0.103,0.873-0.106,1.898,0.51,2.541c0.498,0.521,1.373,0.815,2.149,0.039c0.785-0.785,0.423-2.179,0.273-3.246
	c-0.195-1.398-0.468-2.269-0.821-3.244c-0.773-2.123-2.121-4.476-4.457-6.491C136.937,8.64,135.262,7.74,133.144,7.086z
	 M131.072,13.146c-0.998-0.285-2.796-0.908-3.713,0.039c-0.516,0.531-0.572,1.561,0.039,2.151c0.575,0.556,1.568,0.356,2.424,0.547
	c0.789,0.175,1.845,0.569,2.658,1.251c1.328,1.114,2.004,2.451,2.268,3.597c0.209,0.914,0.039,1.979,0.588,2.542
	c0.529,0.541,1.631,0.682,2.306-0.196c0.644-0.835,0.133-2.881-0.194-3.87c-0.438-1.322-1.597-3.026-2.58-3.91
	C133.623,14.181,132.553,13.569,131.072,13.146z M126.694,23.234c0.914,1.24,2.763,1.85,4.221,0.391
	c1.228-1.227,1.072-3.119-0.43-4.184C128.06,17.723,124.957,20.878,126.694,23.234z"/>
<path display="none" d="M143.076,5.6c5.192,4.564,7.146,10.09,7.508,15.092c0.076,1.055,0.352,2.348-1.018,2.973
	c-0.496,0.226-1.166-0.075-1.484-0.392c-0.771-0.766-0.488-2.644-0.627-3.676c-0.465-3.494-1.972-7.445-5.475-10.947
	c-3.414-3.415-7.35-5.031-10.945-5.474c-0.949-0.116-2.876,0.168-3.637-0.586c-0.549-0.544-0.683-1.435,0-2.111
	c0.85-0.843,3.145-0.337,3.91-0.235c2.745,0.367,5.079,0.995,7.818,2.502C140.51,3.507,141.881,4.55,143.076,5.6z"/>
<path display="none" d="M138.853,10.292c2.336,2.015,3.684,4.368,4.457,6.491c0.354,0.975,0.626,1.846,0.821,3.244
	c0.147,1.067,0.512,2.459-0.273,3.247c-0.776,0.775-1.651,0.481-2.149-0.039c-0.616-0.644-0.407-1.67-0.51-2.542
	c-0.297-2.54-1.129-5.065-3.676-7.586c-2.492-2.469-5.006-3.312-7.623-3.636c-0.803-0.1-1.924,0.022-2.502-0.547
	c-0.575-0.565-0.691-1.505,0.078-2.189c0.638-0.568,2.27-0.347,2.854-0.273c1.013,0.125,1.928,0.351,2.814,0.625
	C135.262,7.74,136.937,8.64,138.853,10.292z"/>
<path display="none" d="M134.865,15.296c0.984,0.885,2.144,2.588,2.582,3.911c0.326,0.989,0.836,3.035,0.193,3.87
	c-0.675,0.878-1.775,0.737-2.307,0.196c-0.547-0.562-0.377-1.629-0.586-2.542c-0.265-1.146-0.939-2.482-2.269-3.597
	c-0.812-0.683-1.869-1.076-2.658-1.251c-0.855-0.191-1.849,0.008-2.424-0.548c-0.611-0.59-0.555-1.62-0.039-2.15
	c0.917-0.947,2.714-0.325,3.714-0.039C132.553,13.569,133.623,14.181,134.865,15.296z"/>
<path display="none" d="M130.486,19.441c1.502,1.064,1.656,2.958,0.43,4.184c-1.458,1.459-3.308,0.85-4.221-0.391
	C124.957,20.878,128.06,17.723,130.486,19.441z"/>
</svg>
