<?xml version="1.0" encoding="utf-8"?>
<!-- Generator: Adobe Illustrator 15.1.0, SVG Export Plug-In  -->
<!DOCTYPE svg PUBLIC "-//W3C//DTD SVG 1.1//EN" "http://www.w3.org/Graphics/SVG/1.1/DTD/svg11.dtd" [
	<!ENTITY ns_flows "http://ns.adobe.com/Flows/1.0/">
]>
<svg version="1.1"
	 xmlns="http://www.w3.org/2000/svg" xmlns:xlink="http://www.w3.org/1999/xlink" xmlns:a="http://ns.adobe.com/AdobeSVGViewerExtensions/3.0/"
	 x="0px" y="0px" width="219px" height="39px" viewBox="0 0 219 39" overflow="visible" enable-background="new 0 0 219 39"
	 xml:space="preserve">
<defs>
</defs>
<path fill="#FFFFFF" d="M82.882,23.629c0,0.75-0.625,1.375-1.351,1.375c-0.774,0-1.375-0.625-1.375-1.375V9.103c0,0,0,0,0-0.025
	c-0.024-0.425,0.176-0.875,0.551-1.15c0.625-0.425,1.475-0.3,1.899,0.3l8.076,11.176v-10.3c0-0.725,0.6-1.35,1.35-1.35
	s1.375,0.625,1.375,1.35V23.63c0,0.75-0.625,1.375-1.375,1.375c-0.399,0-0.774-0.2-1.024-0.5c-0.051-0.05-0.101-0.101-0.125-0.149
	l-8.001-11.102V23.629z"/>
<path fill="#FFFFFF" d="M0,23.629V8.878c0-0.775,0.6-1.375,1.375-1.375h2.95c4.825,0,8.726,3.925,8.726,8.726
	c0,4.851-3.9,8.775-8.726,8.775h-2.95C0.6,25.004,0,24.379,0,23.629z M2.775,22.229h1.55c3.3-0.023,5.95-2.674,5.95-6
	c0-3.275-2.65-5.95-5.95-5.95h-1.55V22.229z"/>
<path fill="#FFFFFF" d="M14.915,23.629V8.878c0-0.775,0.6-1.375,1.375-1.375h0.024c0,0,0,0,0.05,0h8.1
	c0.726,0,1.375,0.6,1.375,1.375s-0.65,1.4-1.375,1.4h-6.775v4.575h5.826c0.75,0,1.375,0.65,1.375,1.375c0,0.775-0.625,1.4-1.375,1.4
	h-5.826v4.601h6.775c0.726,0,1.375,0.625,1.375,1.399c0,0.75-0.65,1.375-1.375,1.375h-8.1c-0.05,0-0.05-0.024-0.05-0.024
	l-0.024,0.024C15.515,25.004,14.915,24.379,14.915,23.629z"/>
<path fill="#FFFFFF" d="M33.925,24.754c-0.05-0.05-0.1-0.074-0.175-0.125c0-0.023-0.025-0.023-0.025-0.074
	c-0.05-0.051-0.1-0.101-0.125-0.15c0,0-0.025,0-0.025-0.024c-0.025-0.05-0.075-0.149-0.125-0.2L27.324,9.578
	c-0.3-0.675,0.025-1.5,0.75-1.775c0.675-0.3,1.476,0.025,1.775,0.725l4.875,11.576L39.6,8.528c0.3-0.7,1.125-1.025,1.8-0.725
	c0.7,0.275,1.025,1.1,0.75,1.775L35.974,24.18c-0.024,0.049-0.05,0.149-0.1,0.199c0,0.023,0,0.023-0.025,0.023
	c-0.024,0.052-0.1,0.102-0.125,0.15c-0.024,0.051-0.024,0.051-0.05,0.075c-0.05,0.05-0.1,0.075-0.15,0.125c0,0,0,0-0.05,0.024
	c-0.05,0.024-0.125,0.101-0.2,0.125c-0.025,0-0.025,0-0.05,0.024c-0.075,0-0.125,0.025-0.2,0.052c0,0-0.025,0-0.05,0
	c-0.1,0.023-0.175,0.023-0.25,0.023c-0.075,0-0.175,0-0.25-0.023c0,0-0.025,0-0.05,0c-0.05-0.025-0.15-0.052-0.2-0.052
	c0-0.024-0.025-0.024-0.025-0.024s0,0-0.025,0c-0.05-0.024-0.15-0.101-0.225-0.149C33.95,24.754,33.95,24.754,33.925,24.754z"/>
<path fill="#FFFFFF" d="M42.922,17.321c0,1.082-0.877,1.959-1.959,1.959h-0.081c-1.082,0-1.959-0.877-1.959-1.959V17.24
	c0-1.082,0.877-1.959,1.959-1.959h0.081c1.082,0,1.959,0.877,1.959,1.959V17.321z"/>
<circle fill="#FFFFFF" cx="68.32" cy="14.797" r="5.231"/>
<circle fill="none" stroke="#FFFFFF" stroke-miterlimit="10" cx="68.32" cy="14.797" r="9.335"/>
<circle fill="none" stroke="#FFFFFF" stroke-miterlimit="10" cx="68.32" cy="14.797" r="13.728"/>
<circle fill="none" stroke="#FFFFFF" stroke-width="0.375" stroke-miterlimit="10" cx="54.956" cy="11.645" r="0.75"/>
<circle fill="#FFFFFF" cx="64.997" cy="23.523" r="0.646"/>
<path fill="#FFFFFF" d="M75.23,1.871c-1.867-1.026-3.457-1.454-5.328-1.705c-0.521-0.07-2.084-0.415-2.663,0.16
	c-0.464,0.461-0.374,1.068,0,1.438c0.519,0.514,1.831,0.32,2.478,0.399c2.449,0.301,5.131,1.402,7.457,3.729
	c2.387,2.386,3.412,5.078,3.729,7.458c0.094,0.704-0.099,1.983,0.427,2.504c0.217,0.216,0.674,0.42,1.012,0.267
	c0.932-0.425,0.744-1.306,0.692-2.025c-0.246-3.408-1.577-7.172-5.114-10.281C77.106,3.1,76.172,2.39,75.23,1.871z M71.154,4.828
	c-0.604-0.187-1.229-0.34-1.917-0.426c-0.398-0.05-1.51-0.201-1.944,0.186c-0.524,0.466-0.445,1.107-0.054,1.492
	c0.394,0.388,1.158,0.305,1.705,0.373c1.783,0.221,3.495,0.795,5.193,2.477c1.734,1.717,2.302,3.438,2.504,5.167
	c0.069,0.594-0.073,1.293,0.347,1.731c0.34,0.355,0.936,0.555,1.465,0.026c0.535-0.535,0.288-1.484,0.186-2.211
	c-0.133-0.953-0.316-1.546-0.559-2.21c-0.527-1.446-1.445-3.049-3.037-4.422C73.738,5.887,72.597,5.273,71.154,4.828z M69.743,8.956
	c-0.681-0.194-1.905-0.618-2.53,0.027c-0.351,0.362-0.389,1.063,0.027,1.465c0.392,0.379,1.068,0.243,1.65,0.373
	c0.537,0.12,1.258,0.388,1.812,0.852c0.904,0.759,1.365,1.67,1.545,2.451c0.143,0.622,0.026,1.349,0.399,1.731
	c0.361,0.37,1.111,0.465,1.571-0.133c0.437-0.569,0.09-1.963-0.133-2.637c-0.298-0.901-1.087-2.062-1.759-2.664
	C71.48,9.661,70.752,9.244,69.743,8.956z M66.76,15.829c0.623,0.845,1.883,1.261,2.877,0.266c0.835-0.835,0.73-2.125-0.293-2.85
	C67.691,12.074,65.576,14.224,66.76,15.829z"/>
<path fill="#FFFFFF" d="M77.92,3.815c3.537,3.109,4.868,6.874,5.114,10.281c0.052,0.719,0.239,1.6-0.692,2.025
	c-0.338,0.154-0.795-0.051-1.012-0.267c-0.525-0.521-0.333-1.8-0.427-2.504c-0.317-2.38-1.343-5.072-3.729-7.458
	c-2.326-2.327-5.008-3.427-7.457-3.729c-0.646-0.079-1.959,0.114-2.477-0.399c-0.375-0.371-0.465-0.978,0-1.438
	c0.578-0.574,2.142-0.229,2.663-0.16c1.87,0.25,3.46,0.678,5.327,1.705C76.172,2.39,77.106,3.1,77.92,3.815z"/>
<path fill="#FFFFFF" d="M75.043,7.012c1.592,1.373,2.51,2.976,3.037,4.422c0.242,0.664,0.426,1.257,0.559,2.21
	c0.102,0.727,0.35,1.676-0.186,2.211c-0.529,0.529-1.125,0.329-1.465-0.026c-0.42-0.438-0.277-1.137-0.347-1.731
	c-0.202-1.73-0.77-3.45-2.504-5.167c-1.698-1.682-3.41-2.256-5.193-2.477c-0.547-0.068-1.312,0.015-1.705-0.373
	c-0.392-0.385-0.471-1.025,0.054-1.492c0.435-0.387,1.546-0.236,1.944-0.186c0.688,0.085,1.312,0.239,1.917,0.426
	C72.597,5.273,73.738,5.887,75.043,7.012z"/>
<path fill="#FFFFFF" d="M72.326,10.421c0.672,0.603,1.461,1.763,1.759,2.664c0.223,0.674,0.569,2.067,0.133,2.637
	c-0.46,0.599-1.21,0.503-1.571,0.133c-0.373-0.383-0.257-1.11-0.399-1.731c-0.18-0.781-0.641-1.691-1.545-2.451
	c-0.554-0.465-1.274-0.732-1.812-0.852c-0.582-0.13-1.259,0.006-1.65-0.373c-0.416-0.402-0.378-1.104-0.027-1.465
	c0.625-0.645,1.85-0.221,2.53-0.027C70.752,9.244,71.48,9.661,72.326,10.421z"/>
<path fill="#FFFFFF" d="M69.344,13.245c1.023,0.725,1.128,2.015,0.293,2.85c-0.994,0.995-2.254,0.579-2.877-0.266
	C65.576,14.224,67.691,12.074,69.344,13.245z"/>
<path fill="#FFFFFF" d="M43.542,16.003c0.025-4.951,4.175-8.976,9.176-9c2.2,0,4.2,0.725,5.775,1.95c0.6,0.5,0.7,1.375,0.25,2
	c-0.5,0.625-1.425,0.725-2.001,0.275c-1.1-0.9-2.475-1.375-4.024-1.375c-1.726,0-3.325,0.7-4.501,1.8
	c-1.125,1.15-1.825,2.65-1.825,4.35s0.7,3.25,1.825,4.351c1.176,1.101,2.775,1.799,4.501,1.799c1.55,0,2.899-0.475,4.024-1.375
	c0.576-0.424,1.501-0.323,2.001,0.275c0.45,0.625,0.35,1.525-0.25,2c-1.575,1.225-3.575,1.95-5.775,1.95
	C47.717,25.004,43.567,20.979,43.542,16.003z"/>
<path fill="#FFFFFF" d="M99.964,23.629c0,0.75-0.625,1.375-1.35,1.375c-0.775,0-1.375-0.625-1.375-1.375V9.103c0,0,0,0,0-0.025
	c-0.025-0.425,0.175-0.875,0.55-1.15c0.625-0.425,1.475-0.3,1.9,0.3l8.075,11.176v-10.3c0-0.725,0.6-1.35,1.351-1.35
	c0.75,0,1.375,0.625,1.375,1.35V23.63c0,0.75-0.625,1.375-1.375,1.375c-0.4,0-0.775-0.2-1.025-0.5
	c-0.051-0.05-0.101-0.101-0.125-0.149l-8.001-11.102V23.629z"/>
<path fill="#FFFFFF" d="M114.316,23.629V8.878c0-0.775,0.6-1.375,1.375-1.375h0.024c0,0,0,0,0.05,0h8.102
	c0.725,0,1.375,0.6,1.375,1.375s-0.65,1.4-1.375,1.4h-6.775v4.575h5.825c0.75,0,1.375,0.65,1.375,1.375c0,0.775-0.625,1.4-1.375,1.4
	h-5.825v4.601h6.775c0.725,0,1.375,0.625,1.375,1.399c0,0.75-0.65,1.375-1.375,1.375h-8.102c-0.05,0-0.05-0.024-0.05-0.024
	l-0.024,0.024C114.916,25.004,114.316,24.379,114.316,23.629z"/>
<path fill="#FFFFFF" d="M126.088,16.003c0.025-4.951,4.176-8.976,9.176-9c2.2,0,4.201,0.725,5.775,1.95c0.6,0.5,0.699,1.375,0.25,2
	c-0.5,0.625-1.426,0.725-2,0.275c-1.1-0.9-2.475-1.375-4.025-1.375c-1.725,0-3.324,0.7-4.5,1.8c-1.125,1.15-1.824,2.65-1.824,4.35
	s0.699,3.25,1.824,4.351c1.176,1.101,2.775,1.799,4.5,1.799c1.551,0,2.9-0.475,4.025-1.375c0.574-0.424,1.5-0.323,2,0.275
	c0.449,0.625,0.35,1.525-0.25,2c-1.574,1.225-3.575,1.95-5.775,1.95C130.264,25.004,126.113,20.979,126.088,16.003z"/>
<path fill="#FFFFFF" d="M154.986,10.278h-3.976v13.351c0,0.773-0.601,1.375-1.375,1.375c-0.75,0-1.376-0.602-1.376-1.375V10.278
	h-3.949c-0.775,0-1.375-0.65-1.375-1.4c0-0.775,0.6-1.375,1.375-1.375h10.676c0.75,0,1.375,0.6,1.375,1.375
	C156.361,9.628,155.736,10.278,154.986,10.278z"/>
<path fill="#FFFFFF" d="M158.275,8.878c0-0.775,0.6-1.375,1.375-1.375c0.75,0,1.399,0.6,1.399,1.375v14.751
	c0,0.773-0.649,1.375-1.399,1.375c-0.775,0-1.375-0.602-1.375-1.375V8.878z"/>
<path fill="#FFFFFF" d="M177.846,9.678c1.551,1.65,2.525,3.851,2.525,6.326s-0.975,4.701-2.525,6.326
	c-1.475,1.625-3.675,2.675-5.975,2.675c-2.4,0-4.602-1.05-6.125-2.675c-1.551-1.625-2.477-3.851-2.477-6.326
	s0.926-4.675,2.477-6.326c1.523-1.65,3.725-2.675,6.125-2.675C174.171,7.003,176.371,8.028,177.846,9.678z M177.521,16.003
	c0-1.7-0.676-3.275-1.701-4.375c-1.049-1.125-2.449-1.775-3.949-1.775c-1.6,0-3,0.65-4.051,1.775
	c-1.051,1.101-1.699,2.675-1.699,4.375s0.648,3.275,1.699,4.351c1.051,1.125,2.451,1.799,4.051,1.799c1.5,0,2.9-0.674,3.949-1.799
	C176.846,19.278,177.521,17.703,177.521,16.003z"/>
<path fill="#FFFFFF" d="M185.873,23.629c0,0.75-0.625,1.375-1.35,1.375c-0.775,0-1.375-0.625-1.375-1.375V9.103c0,0,0,0,0-0.025
	c-0.025-0.425,0.175-0.875,0.55-1.15c0.625-0.425,1.476-0.3,1.899,0.3l8.075,11.176v-10.3c0-0.725,0.601-1.35,1.351-1.35
	s1.375,0.625,1.375,1.35V23.63c0,0.75-0.625,1.375-1.375,1.375c-0.399,0-0.774-0.2-1.025-0.5c-0.049-0.05-0.1-0.101-0.125-0.149
	l-8-11.102V23.629L185.873,23.629z"/>
<path display="none" fill="#FFFFFF" d="M1.451,49.648V21.373c0-1.486,1.17-2.636,2.681-2.636h5.751
	c9.407,0,17.01,7.524,17.01,16.726c0,9.297-7.603,16.822-17.01,16.822H4.132C2.621,52.285,1.451,51.087,1.451,49.648z M6.861,46.965
	h3.022c6.433-0.048,11.6-5.128,11.6-11.502c0-6.277-5.167-11.406-11.6-11.406H6.861V46.965z"/>
<path display="none" fill="#FFFFFF" d="M29.328,49.648V21.373c0-1.486,1.17-2.636,2.681-2.636h0.048c0,0,0,0,0.098,0h15.792
	c1.414,0,2.681,1.15,2.681,2.636c0,1.486-1.267,2.684-2.681,2.684H34.738v8.771h11.356c1.462,0,2.681,1.247,2.681,2.636
	c0,1.485-1.219,2.684-2.681,2.684H34.738v8.818h13.208c1.414,0,2.681,1.197,2.681,2.684c0,1.438-1.267,2.638-2.681,2.638H32.155
	c-0.098,0-0.098-0.048-0.098-0.048l-0.048,0.048C30.498,52.285,29.328,51.087,29.328,49.648z"/>
<path display="none" fill="#FFFFFF" d="M66.144,51.807c-0.098-0.097-0.195-0.146-0.341-0.24c0-0.047-0.048-0.047-0.048-0.145
	c-0.098-0.096-0.195-0.191-0.244-0.287c0,0-0.049,0-0.049-0.048c-0.048-0.096-0.146-0.289-0.244-0.384L53.276,22.714
	c-0.584-1.294,0.049-2.875,1.462-3.403c1.316-0.575,2.875,0.048,3.46,1.39l9.504,22.189l9.504-22.189
	c0.585-1.342,2.193-1.965,3.509-1.39c1.365,0.527,1.999,2.109,1.462,3.403L70.14,50.703c-0.049,0.095-0.098,0.288-0.195,0.384
	c0,0.048,0,0.048-0.049,0.048c-0.049,0.096-0.195,0.191-0.244,0.287c-0.049,0.098-0.049,0.098-0.098,0.145
	c-0.097,0.096-0.195,0.145-0.292,0.24c0,0,0,0-0.097,0.047c-0.098,0.049-0.244,0.191-0.39,0.239c-0.049,0-0.049,0-0.098,0.048
	c-0.146,0-0.244,0.049-0.39,0.098c0,0-0.049,0-0.098,0c-0.195,0.048-0.341,0.048-0.487,0.048s-0.341,0-0.487-0.048
	c0,0-0.049,0-0.098,0c-0.097-0.049-0.292-0.098-0.39-0.098c0-0.048-0.049-0.048-0.049-0.048s0,0-0.049,0
	c-0.098-0.048-0.292-0.19-0.438-0.286C66.192,51.807,66.192,51.807,66.144,51.807z"/>
<path display="none" fill="#FFFFFF" d="M112.494,48.546c-3.071,2.349-6.97,3.739-11.259,3.739c-9.749,0-17.839-7.717-17.887-17.254
	c0.048-9.489,8.139-17.205,17.887-17.253c4.289,0,8.188,1.39,11.259,3.738c1.169,0.959,1.363,2.637,0.486,3.834
	c-0.975,1.198-2.778,1.391-3.898,0.527c-2.145-1.725-4.825-2.636-7.847-2.636c-3.363,0-6.482,1.342-8.773,3.45
	c-2.194,2.205-3.559,5.08-3.559,8.34c0,3.259,1.365,6.23,3.559,8.339c2.291,2.108,7.513,3.675,10.875,3.675"/>
<path display="none" fill="#FFFFFF" d="M160.039,49.648c0,1.438-1.219,2.637-2.631,2.637c-1.512,0-2.682-1.198-2.682-2.637V21.805
	c0,0,0,0,0-0.049c-0.05-0.814,0.342-1.677,1.071-2.204c1.22-0.815,2.876-0.575,3.704,0.575l15.743,21.422V21.805
	c0-1.391,1.17-2.589,2.632-2.589s2.682,1.198,2.682,2.589v27.844c0,1.438-1.22,2.637-2.682,2.637c-0.779,0-1.511-0.385-1.999-0.959
	c-0.097-0.096-0.194-0.191-0.243-0.288l-15.597-21.279L160.039,49.648L160.039,49.648z"/>
<path display="none" fill="#FFFFFF" d="M193.34,49.648c0,1.438-1.218,2.637-2.632,2.637c-1.511,0-2.681-1.198-2.681-2.637V21.805
	c0,0,0,0,0-0.049c-0.049-0.814,0.342-1.677,1.072-2.204c1.219-0.815,2.877-0.575,3.705,0.575l15.742,21.422V21.805
	c0-1.391,1.169-2.589,2.633-2.589c1.461,0,2.68,1.198,2.68,2.589v27.844c0,1.438-1.219,2.637-2.68,2.637
	c-0.781,0-1.512-0.385-2-0.959c-0.098-0.096-0.193-0.191-0.244-0.288L193.34,29.759V49.648z"/>
<path display="none" fill="#FFFFFF" d="M38.587,18.708h17.2c1.84,0,3.491,1.198,3.491,2.685c0,1.438-1.651,2.635-3.491,2.635H35.224
	c-0.127,0-0.127-0.047-0.127-0.047l-0.063,0.047c-1.969,0-3.492-1.197-3.492-2.635C31.542,21.393,31.073,18.4,38.587,18.708z"/>
<path display="none" fill="#FFFFFF" d="M75.573,33.293h10.571c1.131,0,2.145,1.197,2.145,2.684c0,1.438-1.014,2.637-2.145,2.637
	H73.505c-0.077,0-0.077-0.049-0.077-0.049l-0.04,0.049c-1.21,0-2.146-1.198-2.146-2.637C71.243,35.977,70.954,32.982,75.573,33.293z
	"/>
<circle display="none" fill="none" stroke="#000000" stroke-width="0.5505" stroke-miterlimit="10" cx="130.436" cy="28.417" r="7.678"/>
<circle display="none" fill="none" stroke="#000000" stroke-width="0.5505" stroke-miterlimit="10" cx="130.436" cy="28.417" r="13.703"/>
<circle display="none" fill="none" stroke="#000000" stroke-width="0.5505" stroke-miterlimit="10" cx="130.436" cy="28.416" r="20.151"/>
<circle display="none" fill="#FFFFFF" stroke="#000000" stroke-width="0.5505" stroke-miterlimit="10" cx="110.818" cy="23.789" r="1.102"/>
<path display="none" fill="#FFFFFF" d="M140.578,9.443c-2.739-1.507-5.073-2.135-7.82-2.502c-0.764-0.103-3.059-0.608-3.908,0.235
	c-0.683,0.676-0.549,1.567,0,2.111c0.76,0.754,2.688,0.47,3.635,0.586c3.597,0.442,7.533,2.059,10.947,5.474
	c3.504,3.502,5.01,7.453,5.476,10.947c0.138,1.033-0.146,2.911,0.626,3.676c0.318,0.316,0.988,0.618,1.484,0.392
	c1.367-0.625,1.094-1.918,1.018-2.973c-0.361-5.002-2.314-10.528-7.508-15.092C143.332,11.247,141.961,10.204,140.578,9.443z
	 M134.596,13.783c-0.888-0.274-1.803-0.5-2.813-0.625c-0.584-0.073-2.216-0.295-2.854,0.273c-0.77,0.684-0.652,1.625-0.078,2.189
	c0.578,0.569,1.699,0.448,2.502,0.547c2.617,0.324,5.131,1.167,7.623,3.636c2.547,2.521,3.379,5.047,3.676,7.586
	c0.103,0.872-0.106,1.898,0.51,2.541c0.499,0.521,1.374,0.815,2.15,0.039c0.785-0.785,0.422-2.179,0.272-3.246
	c-0.194-1.397-0.467-2.269-0.821-3.244c-0.773-2.123-2.121-4.476-4.457-6.491C138.389,15.337,136.713,14.437,134.596,13.783z
	 M132.523,19.843c-1-0.285-2.797-0.908-3.713,0.039c-0.517,0.531-0.572,1.562,0.039,2.151c0.574,0.556,1.567,0.355,2.424,0.547
	c0.789,0.175,1.846,0.568,2.658,1.251c1.327,1.114,2.004,2.451,2.268,3.597c0.209,0.913,0.039,1.979,0.587,2.542
	c0.53,0.542,1.631,0.683,2.306-0.196c0.643-0.834,0.133-2.881-0.193-3.869c-0.438-1.322-1.598-3.026-2.582-3.91
	C135.074,20.877,134.004,20.266,132.523,19.843z M128.146,29.932c0.914,1.24,2.763,1.85,4.222,0.391
	c1.228-1.227,1.071-3.119-0.431-4.184C129.512,24.42,126.408,27.575,128.146,29.932z"/>
<path display="none" d="M144.527,12.297c5.191,4.564,7.146,10.09,7.507,15.092c0.075,1.055,0.353,2.348-1.017,2.973
	c-0.498,0.227-1.166-0.074-1.485-0.392c-0.771-0.765-0.488-2.643-0.626-3.676c-0.467-3.494-1.973-7.445-5.475-10.947
	c-3.414-3.415-7.351-5.031-10.947-5.474c-0.947-0.116-2.875,0.168-3.635-0.586c-0.55-0.544-0.684-1.435,0-2.111
	c0.85-0.843,3.145-0.337,3.909-0.235c2.745,0.367,5.079,0.995,7.819,2.502C141.961,10.204,143.332,11.247,144.527,12.297z"/>
<path display="none" d="M140.305,16.989c2.336,2.015,3.684,4.368,4.457,6.491c0.354,0.975,0.627,1.846,0.821,3.244
	c0.147,1.066,0.513,2.459-0.272,3.245c-0.776,0.776-1.651,0.482-2.15-0.038c-0.616-0.644-0.407-1.67-0.51-2.541
	c-0.297-2.541-1.129-5.065-3.676-7.586c-2.492-2.469-5.006-3.312-7.623-3.636c-0.803-0.1-1.924,0.022-2.502-0.547
	c-0.574-0.565-0.69-1.505,0.078-2.189c0.639-0.568,2.271-0.347,2.854-0.273c1.012,0.125,1.927,0.351,2.813,0.625
	C136.713,14.437,138.389,15.337,140.305,16.989z"/>
<path display="none" d="M136.316,21.993c0.983,0.885,2.143,2.588,2.58,3.911c0.328,0.988,0.838,3.035,0.194,3.869
	c-0.675,0.879-1.776,0.738-2.306,0.196c-0.549-0.562-0.378-1.629-0.588-2.542c-0.264-1.146-0.938-2.482-2.268-3.597
	c-0.812-0.683-1.869-1.076-2.658-1.251c-0.854-0.191-1.849,0.008-2.424-0.548c-0.611-0.591-0.555-1.62-0.039-2.15
	c0.918-0.947,2.715-0.325,3.713-0.039C134.004,20.266,135.074,20.877,136.316,21.993z"/>
<path display="none" d="M131.938,26.139c1.502,1.063,1.656,2.957,0.431,4.184c-1.459,1.459-3.308,0.85-4.222-0.391
	C126.408,27.575,129.512,24.42,131.938,26.139z"/>
</svg>
