<?xml version="1.0" encoding="utf-8"?>
<!-- Generator: Adobe Illustrator 15.1.0, SVG Export Plug-In  -->
<!DOCTYPE svg PUBLIC "-//W3C//DTD SVG 1.1//EN" "http://www.w3.org/Graphics/SVG/1.1/DTD/svg11.dtd" [
	<!ENTITY ns_flows "http://ns.adobe.com/Flows/1.0/">
]>
<svg version="1.1"
	 xmlns="http://www.w3.org/2000/svg" xmlns:xlink="http://www.w3.org/1999/xlink" xmlns:a="http://ns.adobe.com/AdobeSVGViewerExtensions/3.0/"
	 x="0px" y="0px" width="274px" height="42px" viewBox="0 8.041 274 42" overflow="visible" enable-background="new 0 8.041 274 42"
	 xml:space="preserve">
<defs>
</defs>
<path fill="#FFFFFF" d="M115.235,41.893c0,1.043-0.869,1.912-1.877,1.912c-1.078,0-1.912-0.869-1.912-1.912V21.697c0,0,0,0,0-0.035
	c-0.035-0.591,0.243-1.216,0.765-1.599c0.869-0.591,2.05-0.417,2.641,0.417l11.229,15.537v-14.32c0-1.008,0.833-1.877,1.876-1.877
	c1.043,0,1.912,0.869,1.912,1.877v20.196c0,1.043-0.869,1.912-1.912,1.912c-0.556,0-1.078-0.278-1.425-0.695
	c-0.07-0.07-0.139-0.139-0.174-0.209l-11.124-15.434V41.893z"/>
<path fill="#FFFFFF" d="M0,41.893V21.384c0-1.077,0.834-1.912,1.912-1.912h4.102c6.708,0,12.132,5.457,12.132,12.131
	c0,6.744-5.423,12.201-12.132,12.201H1.912C0.834,43.805,0,42.936,0,41.893z M3.858,39.946h2.156
	c4.588-0.034,8.272-3.719,8.272-8.343c0-4.553-3.685-8.272-8.272-8.272H3.858V39.946z"/>
<path fill="#FFFFFF" d="M20.737,41.893V21.384c0-1.077,0.834-1.912,1.912-1.912h0.035c0,0,0,0,0.07,0h11.262
	c1.008,0,1.912,0.834,1.912,1.912c0,1.078-0.904,1.947-1.912,1.947h-9.42v6.361h8.099c1.043,0,1.912,0.903,1.912,1.912
	c0,1.076-0.869,1.945-1.912,1.945h-8.099v6.396h9.42c1.008,0,1.912,0.869,1.912,1.946c0,1.043-0.904,1.912-1.912,1.912H22.753
	c-0.07,0-0.07-0.034-0.07-0.034l-0.035,0.034C21.571,43.805,20.737,42.936,20.737,41.893z"/>
<path fill="#FFFFFF" d="M47.167,43.457c-0.07-0.069-0.139-0.104-0.243-0.174c0-0.035-0.035-0.035-0.035-0.104
	c-0.069-0.069-0.139-0.139-0.174-0.209c0,0-0.035,0-0.035-0.034c-0.035-0.069-0.104-0.209-0.174-0.277l-8.516-20.301
	c-0.417-0.939,0.035-2.086,1.042-2.468c0.939-0.417,2.051,0.035,2.468,1.008L48.28,36.99l6.778-16.093
	c0.417-0.973,1.564-1.425,2.503-1.008c0.973,0.382,1.425,1.529,1.042,2.468l-8.585,20.301c-0.035,0.069-0.07,0.208-0.14,0.277
	c0,0.034,0,0.034-0.034,0.034c-0.035,0.07-0.139,0.14-0.174,0.209c-0.035,0.07-0.035,0.07-0.069,0.104
	c-0.07,0.07-0.14,0.104-0.209,0.174c0,0,0,0-0.069,0.035c-0.07,0.035-0.174,0.139-0.278,0.173c-0.035,0-0.035,0-0.069,0.035
	c-0.104,0-0.174,0.035-0.278,0.07c0,0-0.035,0-0.069,0c-0.14,0.035-0.244,0.035-0.348,0.035c-0.104,0-0.243,0-0.348-0.035
	c0,0-0.035,0-0.069,0c-0.069-0.035-0.208-0.07-0.278-0.07c0-0.035-0.035-0.035-0.035-0.035s0,0-0.035,0
	c-0.069-0.034-0.209-0.138-0.313-0.208C47.202,43.457,47.202,43.457,47.167,43.457z"/>
<path fill="#FFFFFF" d="M59.87,33.11c0,1.505-1.219,2.726-2.724,2.726h-0.113c-1.505,0-2.724-1.221-2.724-2.726v-0.112
	c0-1.505,1.219-2.725,2.724-2.725h0.113c1.505,0,2.724,1.22,2.724,2.725V33.11z"/>
<circle fill="none" stroke="#FFFFFF" stroke-width="0.75" stroke-miterlimit="10" cx="94.99" cy="29.614" r="7.272"/>
<circle fill="none" stroke="#FFFFFF" stroke-width="0.75" stroke-miterlimit="10" cx="94.99" cy="29.614" r="12.98"/>
<path fill="none" stroke="#FFFFFF" stroke-width="0.75" stroke-miterlimit="10" d="M94.99,10.527c-8.67,0-15.986,5.783-18.312,13.7
	c0.444,0.12,0.773,0.521,0.773,1.004c0,0.577-0.467,1.042-1.043,1.042c-0.07,0-0.138-0.007-0.205-0.021
	c-0.194,1.092-0.301,2.213-0.301,3.36c0,10.542,8.546,19.088,19.088,19.088c10.542,0,19.087-8.547,19.087-19.088
	C114.077,19.072,105.531,10.527,94.99,10.527z"/>
<path fill="none" stroke="#FFFFFF" stroke-width="0.75" stroke-miterlimit="10" d="M76.678,24.228
	c-0.087-0.023-0.176-0.039-0.271-0.039c-0.575,0-1.042,0.467-1.042,1.043c0,0.506,0.361,0.927,0.838,1.022"/>
<path fill="none" stroke="#FFFFFF" stroke-width="0.75" stroke-miterlimit="10" d="M76.204,26.253
	c0.067,0.013,0.135,0.021,0.205,0.021c0.576,0,1.043-0.467,1.043-1.043c0-0.482-0.329-0.884-0.773-1.004"/>
<circle fill="none" stroke="#FFFFFF" stroke-width="0.75" stroke-miterlimit="10" cx="90.369" cy="41.746" r="0.898"/>
<path fill="#FFFFFF" d="M104.596,11.643c-2.594-1.428-4.805-2.022-7.406-2.37c-0.724-0.097-2.897-0.576-3.703,0.222
	c-0.646,0.641-0.52,1.484,0,2c0.721,0.714,2.546,0.446,3.444,0.556c3.406,0.419,7.135,1.95,10.369,5.185
	c3.318,3.317,4.744,7.059,5.185,10.369c0.131,0.979-0.137,2.757,0.593,3.481c0.303,0.3,0.937,0.585,1.407,0.37
	c1.295-0.591,1.035-1.815,0.963-2.814c-0.342-4.738-2.192-9.972-7.111-14.294C107.205,13.351,105.906,12.363,104.596,11.643z
	 M98.93,15.753c-0.84-0.259-1.708-0.474-2.666-0.593c-0.553-0.069-2.1-0.278-2.704,0.26c-0.729,0.647-0.618,1.539-0.074,2.074
	c0.548,0.539,1.609,0.424,2.37,0.519c2.479,0.307,4.86,1.105,7.221,3.444c2.412,2.388,3.201,4.779,3.481,7.185
	c0.096,0.826-0.101,1.799,0.482,2.408c0.474,0.494,1.301,0.771,2.037,0.036c0.743-0.744,0.4-2.063,0.258-3.074
	c-0.185-1.325-0.441-2.15-0.777-3.073c-0.733-2.01-2.01-4.24-4.222-6.147C102.523,17.226,100.935,16.372,98.93,15.753z
	 M96.968,21.493c-0.947-0.271-2.649-0.86-3.519,0.037c-0.487,0.502-0.541,1.478,0.038,2.037c0.545,0.527,1.487,0.338,2.296,0.519
	c0.747,0.166,1.748,0.539,2.518,1.185c1.257,1.055,1.898,2.321,2.147,3.407c0.199,0.865,0.036,1.875,0.556,2.408
	c0.502,0.514,1.545,0.647,2.185-0.186c0.607-0.791,0.125-2.729-0.185-3.666c-0.416-1.252-1.512-2.866-2.445-3.703
	C99.382,22.474,98.369,21.894,96.968,21.493z M92.82,31.049c0.866,1.174,2.617,1.752,3.999,0.369
	c1.161-1.161,1.016-2.955-0.407-3.962C94.115,25.827,91.175,28.816,92.82,31.049z"/>
<path fill="#FFFFFF" d="M108.336,14.346c4.918,4.323,6.768,9.557,7.11,14.294c0.072,0.999,0.333,2.224-0.963,2.815
	c-0.471,0.214-1.104-0.071-1.407-0.371c-0.73-0.724-0.462-2.502-0.593-3.481c-0.441-3.31-1.867-7.052-5.185-10.369
	c-3.234-3.235-6.963-4.766-10.369-5.185c-0.898-0.11-2.723,0.16-3.444-0.556c-0.52-0.515-0.647-1.359,0-1.999
	c0.805-0.799,2.979-0.319,3.703-0.223c2.601,0.348,4.812,0.943,7.407,2.37C105.906,12.363,107.205,13.351,108.336,14.346z"/>
<path fill="#FFFFFF" d="M104.336,18.789c2.213,1.909,3.49,4.138,4.222,6.148c0.335,0.924,0.593,1.748,0.777,3.073
	c0.141,1.011,0.485,2.331-0.258,3.074c-0.735,0.736-1.563,0.457-2.037-0.037c-0.583-0.608-0.386-1.581-0.481-2.407
	c-0.281-2.405-1.07-4.796-3.482-7.184c-2.36-2.339-4.742-3.138-7.22-3.444c-0.761-0.094-1.823,0.021-2.37-0.519
	c-0.544-0.536-0.655-1.426,0.073-2.074c0.605-0.537,2.15-0.328,2.704-0.259c0.958,0.119,1.825,0.333,2.666,0.592
	C100.935,16.372,102.523,17.226,104.336,18.789z"/>
<path fill="#FFFFFF" d="M100.56,23.53c0.933,0.837,2.03,2.451,2.445,3.703c0.31,0.937,0.792,2.875,0.185,3.667
	c-0.64,0.832-1.683,0.699-2.185,0.186c-0.52-0.533-0.357-1.543-0.556-2.408c-0.25-1.085-0.891-2.352-2.147-3.407
	c-0.77-0.646-1.772-1.019-2.519-1.185c-0.81-0.181-1.751,0.008-2.296-0.519c-0.579-0.559-0.525-1.535-0.038-2.037
	c0.869-0.897,2.571-0.307,3.518-0.037C98.369,21.894,99.382,22.474,100.56,23.53z"/>
<path fill="#FFFFFF" d="M96.412,27.456c1.423,1.008,1.568,2.801,0.407,3.962c-1.382,1.383-3.133,0.805-3.999-0.369
	C91.175,28.816,94.115,25.827,96.412,27.456z"/>
<path fill="#FFFFFF" d="M60.539,31.291c0.035-6.883,5.805-12.479,12.757-12.514c3.059,0,5.839,1.008,8.029,2.711
	c0.834,0.695,0.974,1.912,0.348,2.78c-0.695,0.869-1.981,1.008-2.781,0.383c-1.529-1.251-3.441-1.912-5.596-1.912
	c-2.398,0-4.623,0.973-6.257,2.502c-1.564,1.599-2.537,3.685-2.537,6.049c0,2.363,0.973,4.519,2.537,6.048
	c1.634,1.529,3.858,2.503,6.257,2.503c2.155,0,4.032-0.66,5.596-1.912c0.799-0.591,2.085-0.451,2.781,0.384
	c0.625,0.868,0.486,2.12-0.348,2.78c-2.189,1.702-4.971,2.711-8.029,2.711C66.344,43.805,60.573,38.209,60.539,31.291z"/>
<path fill="#FFFFFF" d="M138.985,41.893c0,1.043-0.869,1.912-1.876,1.912c-1.078,0-1.912-0.869-1.912-1.912V21.697c0,0,0,0,0-0.035
	c-0.035-0.591,0.244-1.216,0.765-1.599c0.869-0.591,2.051-0.417,2.642,0.417l11.228,15.537v-14.32c0-1.008,0.833-1.877,1.877-1.877
	c1.042,0,1.912,0.869,1.912,1.877v20.196c0,1.043-0.87,1.912-1.912,1.912c-0.557,0-1.078-0.278-1.425-0.695
	c-0.07-0.07-0.14-0.139-0.174-0.209l-11.124-15.434V41.893z"/>
<path fill="#FFFFFF" d="M158.94,41.893V21.384c0-1.077,0.834-1.912,1.912-1.912h0.035c0,0,0,0,0.07,0h11.262
	c1.007,0,1.912,0.834,1.912,1.912c0,1.078-0.904,1.947-1.912,1.947h-9.419v6.361h8.098c1.043,0,1.912,0.903,1.912,1.912
	c0,1.076-0.869,1.945-1.912,1.945h-8.098v6.396h9.419c1.007,0,1.912,0.869,1.912,1.946c0,1.043-0.904,1.912-1.912,1.912h-11.262
	c-0.07,0-0.07-0.034-0.07-0.034l-0.035,0.034C159.774,43.805,158.94,42.936,158.94,41.893z"/>
<path fill="#FFFFFF" d="M175.307,31.291c0.034-6.883,5.805-12.479,12.756-12.514c3.059,0,5.841,1.008,8.03,2.711
	c0.834,0.695,0.973,1.912,0.348,2.78c-0.696,0.869-1.981,1.008-2.781,0.383c-1.529-1.251-3.441-1.912-5.598-1.912
	c-2.397,0-4.623,0.973-6.256,2.502c-1.564,1.599-2.537,3.685-2.537,6.049c0,2.363,0.973,4.519,2.537,6.048
	c1.634,1.529,3.859,2.503,6.256,2.503c2.156,0,4.034-0.66,5.598-1.912c0.799-0.591,2.085-0.451,2.781,0.384
	c0.625,0.868,0.486,2.12-0.348,2.78c-2.189,1.702-4.97,2.711-8.03,2.711C181.112,43.805,175.341,38.209,175.307,31.291z"/>
<path fill="#FFFFFF" d="M215.484,23.331h-5.525v18.562c0,1.078-0.835,1.912-1.912,1.912c-1.042,0-1.913-0.834-1.913-1.912V23.331
	h-5.491c-1.078,0-1.912-0.904-1.912-1.947c0-1.078,0.834-1.912,1.912-1.912h14.843c1.043,0,1.912,0.834,1.912,1.912
	C217.396,22.426,216.527,23.331,215.484,23.331z"/>
<path fill="#FFFFFF" d="M220.059,21.384c0-1.077,0.834-1.912,1.912-1.912c1.043,0,1.946,0.834,1.946,1.912v20.509
	c0,1.077-0.903,1.912-1.946,1.912c-1.078,0-1.912-0.835-1.912-1.912V21.384z"/>
<path fill="#FFFFFF" d="M247.27,22.496c2.155,2.294,3.511,5.354,3.511,8.795s-1.355,6.534-3.511,8.795
	c-2.052,2.259-5.111,3.719-8.309,3.719c-3.338,0-6.396-1.46-8.517-3.719c-2.155-2.261-3.441-5.354-3.441-8.795
	s1.286-6.501,3.441-8.795c2.12-2.294,5.179-3.719,8.517-3.719C242.158,18.777,245.218,20.202,247.27,22.496z M246.817,31.291
	c0-2.364-0.939-4.554-2.364-6.083c-1.461-1.564-3.406-2.468-5.492-2.468c-2.224,0-4.171,0.903-5.632,2.468
	c-1.46,1.529-2.363,3.719-2.363,6.083c0,2.363,0.903,4.554,2.363,6.048c1.461,1.563,3.407,2.503,5.632,2.503
	c2.086,0,4.032-0.939,5.492-2.503C245.878,35.845,246.817,33.654,246.817,31.291z"/>
<path fill="#FFFFFF" d="M258.429,41.893c0,1.043-0.869,1.912-1.877,1.912c-1.078,0-1.911-0.869-1.911-1.912V21.697c0,0,0,0,0-0.035
	c-0.035-0.591,0.243-1.216,0.766-1.599c0.868-0.591,2.05-0.417,2.641,0.417l11.228,15.537v-14.32c0-1.008,0.834-1.877,1.877-1.877
	s1.912,0.869,1.912,1.877v20.196c0,1.043-0.869,1.912-1.912,1.912c-0.556,0-1.077-0.278-1.425-0.695
	c-0.07-0.07-0.139-0.139-0.174-0.209l-11.124-15.434V41.893z"/>
<path display="none" fill="#FFFFFF" d="M7.651,42.952V14.676c0-1.486,1.17-2.636,2.681-2.636h5.751
	c9.407,0,17.01,7.524,17.01,16.726c0,9.296-7.603,16.822-17.01,16.822h-5.751C8.821,45.588,7.651,44.391,7.651,42.952z
	 M13.061,40.268h3.022c6.433-0.047,11.6-5.127,11.6-11.501c0-6.278-5.167-11.406-11.6-11.406h-3.022V40.268z"/>
<path display="none" fill="#FFFFFF" d="M35.527,42.952V14.676c0-1.486,1.17-2.636,2.681-2.636h0.048c0,0,0,0,0.098,0h15.792
	c1.414,0,2.681,1.15,2.681,2.636c0,1.486-1.267,2.684-2.681,2.684H40.938v8.77h11.356c1.462,0,2.681,1.247,2.681,2.636
	c0,1.485-1.219,2.684-2.681,2.684H40.938v8.817h13.208c1.414,0,2.681,1.197,2.681,2.685c0,1.438-1.267,2.637-2.681,2.637H38.354
	c-0.098,0-0.098-0.048-0.098-0.048l-0.048,0.048C36.697,45.588,35.527,44.391,35.527,42.952z"/>
<path display="none" fill="#FFFFFF" d="M72.343,45.109c-0.098-0.096-0.195-0.146-0.341-0.24c0-0.047-0.048-0.047-0.048-0.145
	c-0.098-0.096-0.195-0.19-0.244-0.287c0,0-0.049,0-0.049-0.047c-0.048-0.097-0.146-0.289-0.244-0.385L59.476,16.018
	c-0.584-1.294,0.049-2.875,1.462-3.403c1.316-0.575,2.875,0.048,3.46,1.39l9.504,22.188l9.504-22.188
	c0.585-1.342,2.193-1.965,3.509-1.39c1.365,0.527,1.999,2.109,1.462,3.403L76.34,44.006c-0.049,0.096-0.098,0.288-0.195,0.385
	c0,0.047,0,0.047-0.049,0.047c-0.049,0.097-0.195,0.191-0.244,0.287c-0.049,0.098-0.049,0.098-0.098,0.145
	c-0.097,0.096-0.195,0.145-0.292,0.24c0,0,0,0-0.097,0.048c-0.098,0.048-0.244,0.19-0.39,0.239c-0.049,0-0.049,0-0.098,0.047
	c-0.146,0-0.244,0.05-0.39,0.098c0,0-0.049,0-0.098,0c-0.195,0.048-0.341,0.048-0.487,0.048s-0.341,0-0.487-0.048
	c0,0-0.049,0-0.098,0c-0.097-0.048-0.292-0.098-0.39-0.098c0-0.047-0.049-0.047-0.049-0.047s0,0-0.049,0
	c-0.098-0.049-0.292-0.191-0.438-0.287C72.392,45.109,72.392,45.109,72.343,45.109z"/>
<path display="none" fill="#FFFFFF" d="M118.693,41.85c-3.071,2.349-6.97,3.738-11.259,3.738c-9.749,0-17.839-7.717-17.887-17.254
	c0.048-9.489,8.139-17.205,17.887-17.253c4.289,0,8.188,1.39,11.259,3.738c1.169,0.958,1.364,2.636,0.487,3.834
	c-0.975,1.198-2.779,1.39-3.899,0.527c-2.145-1.725-4.825-2.636-7.847-2.636c-3.363,0-6.482,1.342-8.773,3.451
	c-2.194,2.205-3.559,5.08-3.559,8.339s1.365,6.23,3.559,8.339c2.291,2.109,7.513,3.675,10.875,3.675"/>
<path display="none" fill="#FFFFFF" d="M166.239,42.952c0,1.438-1.219,2.637-2.631,2.637c-1.512,0-2.682-1.198-2.682-2.637V15.107
	c0,0,0,0,0-0.048c-0.049-0.815,0.342-1.677,1.072-2.204c1.219-0.815,2.876-0.575,3.704,0.575l15.743,21.421V15.107
	c0-1.39,1.17-2.588,2.632-2.588s2.681,1.198,2.681,2.588v27.844c0,1.438-1.219,2.637-2.681,2.637c-0.779,0-1.511-0.384-1.999-0.959
	c-0.097-0.096-0.194-0.191-0.243-0.288l-15.597-21.279L166.239,42.952L166.239,42.952z"/>
<path display="none" fill="#FFFFFF" d="M199.54,42.952c0,1.438-1.218,2.637-2.632,2.637c-1.511,0-2.681-1.198-2.681-2.637V15.107
	c0,0,0,0,0-0.048c-0.048-0.815,0.342-1.677,1.073-2.204c1.219-0.815,2.876-0.575,3.704,0.575l15.743,21.421V15.107
	c0-1.39,1.169-2.588,2.632-2.588c1.462,0,2.68,1.198,2.68,2.588v27.844c0,1.438-1.218,2.637-2.68,2.637
	c-0.779,0-1.511-0.384-1.999-0.959c-0.098-0.096-0.194-0.191-0.244-0.288L199.54,23.062V42.952z"/>
<path display="none" fill="#FFFFFF" d="M227.518,42.952V14.676c0-1.486,1.17-2.636,2.682-2.636h0.05c0,0,0,0,0.097,0h15.793
	c1.412,0,2.68,1.15,2.68,2.636c0,1.486-1.268,2.684-2.68,2.684H232.93v8.771h11.355c1.462,0,2.681,1.246,2.681,2.636
	c0,1.485-1.219,2.684-2.681,2.684H232.93v8.818h13.209c1.412,0,2.68,1.196,2.68,2.684c0,1.438-1.268,2.637-2.68,2.637h-15.793
	c-0.097,0-0.097-0.048-0.097-0.048l-0.05,0.048C228.688,45.588,227.518,44.391,227.518,42.952z"/>
<path display="none" fill="#FFFFFF" d="M273.148,17.3C273.148,17.3,275.458,18.106,273.148,17.3
	c-2.311-0.806-4.793-0.755-4.793-0.755c-3.363,0-6.482,1.342-8.772,3.451c-2.192,2.205-3.56,5.08-3.56,8.339s1.365,6.231,3.56,8.339
	c2.29,2.109,5.409,3.451,8.772,3.451c3.021,0,5.653-0.911,7.848-2.637c1.121-0.814,2.924-0.622,3.898,0.527
	c0.877,1.197,0.683,2.924-0.488,3.834c-3.069,2.349-6.969,3.738-11.258,3.738c-9.748,0-17.838-7.717-17.888-17.254
	c0.05-9.489,8.14-17.205,17.888-17.253c4.289,0,8.188,1.39,11.258,3.738L273.148,17.3z"/>
<path display="none" fill="#FFFFFF" d="M20.354,40.286H38.98c1.994,0,3.781,1.198,3.781,2.685c0,1.438-1.787,2.635-3.781,2.635
	H16.711c-0.138,0-0.138-0.047-0.138-0.047l-0.068,0.047c-2.131,0-3.781-1.197-3.781-2.635
	C12.725,42.969,12.216,39.979,20.354,40.286z"/>
<path display="none" fill="#FFFFFF" d="M44.787,12.011h17.2c1.84,0,3.491,1.198,3.491,2.684c0,1.438-1.651,2.636-3.491,2.636H41.424
	c-0.127,0-0.127-0.047-0.127-0.047l-0.063,0.047c-1.969,0-3.492-1.198-3.492-2.636C37.742,14.695,37.273,11.703,44.787,12.011z"/>
<path display="none" fill="#FFFFFF" d="M112.61,40.286h22.265c2.381,0,4.518,1.198,4.518,2.685c0,1.438-2.137,2.635-4.518,2.635
	h-26.618c-0.165,0-0.165-0.047-0.165-0.047l-0.082,0.047c-2.548,0-4.519-1.197-4.519-2.635
	C103.492,42.969,102.884,39.979,112.61,40.286z"/>
<path display="none" fill="#FFFFFF" d="M139.171,40.286h22.265c2.382,0,4.518,1.198,4.518,2.685c0,1.438-2.136,2.635-4.518,2.635
	h-26.618c-0.164,0-0.164-0.047-0.164-0.047l-0.081,0.047c-2.549,0-4.52-1.197-4.52-2.635
	C130.053,42.969,129.446,39.979,139.171,40.286z"/>
<path display="none" fill="#FFFFFF" d="M81.772,26.596h10.571c1.131,0,2.145,1.197,2.145,2.684c0,1.438-1.014,2.636-2.145,2.636
	H79.705c-0.077,0-0.077-0.048-0.077-0.048l-0.04,0.048c-1.21,0-2.146-1.198-2.146-2.636C77.442,29.28,77.154,26.287,81.772,26.596z"
	/>
<path display="none" fill="#FFFFFF" d="M219.436,12.095h11.334c1.213,0,2.299,1.198,2.299,2.684c0,1.438-1.086,2.636-2.299,2.636
	h-13.552c-0.083,0-0.083-0.048-0.083-0.048l-0.042,0.048c-1.297,0-2.301-1.198-2.301-2.636
	C214.792,14.779,214.484,11.787,219.436,12.095z"/>
<path display="none" fill="#FFFFFF" d="M247.945,40.249h18.169c1.942,0,3.687,1.198,3.687,2.685c0,1.438-1.742,2.635-3.687,2.635
	h-21.724c-0.133,0-0.133-0.047-0.133-0.047l-0.066,0.047c-2.08,0-3.688-1.196-3.688-2.635
	C240.504,42.934,240.008,39.941,247.945,40.249z"/>
<path display="none" fill="#FFFFFF" d="M276.048,12.038h12.453c1.332,0,2.526,1.198,2.526,2.684c0,1.438-1.194,2.636-2.526,2.636
	h-14.89c-0.09,0-0.09-0.048-0.09-0.048l-0.047,0.048c-1.426,0-2.526-1.198-2.526-2.636C270.949,14.722,270.609,11.73,276.048,12.038
	z"/>
<path display="none" fill="#FFFFFF" d="M44.787,40.125h17.2c1.84,0,3.491,1.198,3.491,2.686c0,1.438-1.651,2.636-3.491,2.636H41.424
	c-0.127,0-0.127-0.05-0.127-0.05l-0.063,0.05c-1.969,0-3.492-1.198-3.492-2.636C37.742,42.811,37.273,39.818,44.787,40.125z"/>
<circle display="none" fill="none" stroke="#000000" stroke-width="0.5505" stroke-miterlimit="10" cx="136.635" cy="21.72" r="7.678"/>
<circle display="none" fill="none" stroke="#000000" stroke-width="0.5505" stroke-miterlimit="10" cx="136.635" cy="21.72" r="13.703"/>
<circle display="none" fill="none" stroke="#000000" stroke-width="0.5505" stroke-miterlimit="10" cx="136.635" cy="21.719" r="20.151"/>
<circle display="none" fill="#FFFFFF" stroke="#000000" stroke-width="0.5505" stroke-miterlimit="10" cx="117.018" cy="17.093" r="1.101"/>
<circle display="none" fill="#FFFFFF" stroke="#000000" stroke-width="0.5505" stroke-miterlimit="10" cx="131.757" cy="34.528" r="0.948"/>
<path display="none" fill="#FFFFFF" d="M146.778,2.746c-2.739-1.507-5.073-2.135-7.82-2.502c-0.764-0.103-3.059-0.608-3.908,0.235
	c-0.683,0.676-0.549,1.567,0,2.111c0.76,0.754,2.688,0.47,3.635,0.586c3.596,0.442,7.533,2.059,10.947,5.474
	c3.503,3.502,5.009,7.453,5.475,10.947c0.138,1.033-0.146,2.911,0.626,3.676c0.318,0.316,0.988,0.618,1.485,0.392
	c1.367-0.625,1.093-1.918,1.017-2.973c-0.361-5.002-2.315-10.528-7.508-15.092C149.532,4.55,148.161,3.507,146.778,2.746z
	 M140.795,7.086c-0.888-0.274-1.803-0.5-2.814-0.625c-0.584-0.073-2.216-0.295-2.854,0.273c-0.77,0.684-0.653,1.625-0.078,2.189
	c0.578,0.569,1.699,0.448,2.502,0.547c2.617,0.324,5.131,1.167,7.623,3.636c2.546,2.521,3.379,5.046,3.676,7.586
	c0.102,0.872-0.107,1.898,0.509,2.541c0.499,0.521,1.374,0.815,2.15,0.039c0.785-0.786,0.423-2.179,0.273-3.246
	c-0.195-1.398-0.467-2.269-0.821-3.244c-0.773-2.123-2.121-4.476-4.457-6.491C144.588,8.64,142.913,7.74,140.795,7.086z
	 M138.723,13.146c-0.999-0.285-2.796-0.908-3.713,0.039c-0.516,0.531-0.572,1.561,0.039,2.151c0.575,0.556,1.568,0.356,2.424,0.547
	c0.789,0.175,1.846,0.569,2.658,1.251c1.328,1.114,2.004,2.451,2.268,3.597c0.209,0.913,0.039,1.979,0.587,2.542
	c0.53,0.542,1.631,0.682,2.306-0.196c0.643-0.835,0.133-2.881-0.194-3.87c-0.438-1.322-1.597-3.026-2.581-3.91
	C141.274,14.181,140.204,13.569,138.723,13.146z M134.345,23.234c0.914,1.241,2.763,1.85,4.222,0.391
	c1.227-1.226,1.072-3.119-0.43-4.184C135.711,17.723,132.608,20.878,134.345,23.234z"/>
<path display="none" d="M150.727,5.6c5.192,4.564,7.146,10.09,7.507,15.092c0.076,1.055,0.352,2.348-1.017,2.973
	c-0.497,0.226-1.166-0.075-1.485-0.392c-0.771-0.765-0.488-2.643-0.626-3.676c-0.466-3.494-1.972-7.445-5.475-10.947
	c-3.414-3.415-7.35-5.031-10.946-5.474c-0.948-0.116-2.876,0.168-3.636-0.586c-0.549-0.544-0.683-1.435,0-2.111
	c0.85-0.843,3.145-0.337,3.91-0.235c2.745,0.367,5.079,0.995,7.819,2.502C148.161,3.507,149.532,4.55,150.727,5.6z"/>
<path display="none" d="M146.504,10.292c2.336,2.015,3.684,4.368,4.457,6.491c0.354,0.975,0.626,1.846,0.821,3.244
	c0.148,1.067,0.512,2.46-0.273,3.246c-0.776,0.776-1.651,0.482-2.15-0.039c-0.616-0.643-0.407-1.669-0.509-2.541
	c-0.297-2.54-1.13-5.065-3.676-7.586c-2.492-2.469-5.006-3.312-7.623-3.636c-0.803-0.1-1.924,0.022-2.502-0.547
	c-0.575-0.565-0.691-1.505,0.078-2.189c0.638-0.568,2.27-0.347,2.854-0.273c1.012,0.125,1.927,0.351,2.814,0.625
	C142.913,7.74,144.588,8.64,146.504,10.292z"/>
<path display="none" d="M142.516,15.296c0.984,0.885,2.143,2.588,2.581,3.911c0.327,0.989,0.837,3.035,0.194,3.87
	c-0.675,0.878-1.776,0.738-2.306,0.196c-0.548-0.562-0.378-1.629-0.587-2.542c-0.264-1.146-0.939-2.482-2.268-3.597
	c-0.812-0.683-1.869-1.076-2.658-1.251c-0.855-0.191-1.849,0.008-2.424-0.548c-0.611-0.59-0.555-1.62-0.039-2.15
	c0.917-0.947,2.714-0.325,3.713-0.039C140.204,13.569,141.274,14.181,142.516,15.296z"/>
<path display="none" d="M138.137,19.441c1.502,1.064,1.656,2.958,0.43,4.184c-1.459,1.459-3.308,0.85-4.222-0.391
	C132.608,20.878,135.711,17.723,138.137,19.441z"/>
</svg>
