<?xml version="1.0" encoding="utf-8"?>
<!-- Generator: Adobe Illustrator 15.1.0, SVG Export Plug-In  -->
<!DOCTYPE svg PUBLIC "-//W3C//DTD SVG 1.1//EN" "http://www.w3.org/Graphics/SVG/1.1/DTD/svg11.dtd" [
	<!ENTITY ns_flows "http://ns.adobe.com/Flows/1.0/">
]>
<svg version="1.1"
	 xmlns="http://www.w3.org/2000/svg" xmlns:xlink="http://www.w3.org/1999/xlink" xmlns:a="http://ns.adobe.com/AdobeSVGViewerExtensions/3.0/"
	 x="0px" y="0px" width="407px" height="75px" viewBox="-4.878 -4.458 407 75"
	 overflow="visible" enable-background="new -4.878 -4.458 407 75" xml:space="preserve">
<defs>
</defs>
<path fill="#FFFFFF" d="M165.764,47.257c0,1.5-1.25,2.75-2.7,2.75c-1.55,0-2.75-1.25-2.75-2.75V18.206c0,0,0,0,0-0.05
	c-0.05-0.85,0.35-1.75,1.101-2.3c1.25-0.85,2.949-0.6,3.799,0.6l16.152,22.351V18.206c0-1.45,1.199-2.7,2.699-2.7
	s2.75,1.25,2.75,2.7v29.052c0,1.5-1.25,2.75-2.75,2.75c-0.8,0-1.55-0.4-2.05-1c-0.101-0.1-0.2-0.2-0.25-0.301l-16.001-22.201V47.257
	z"/>
<path fill="#FFFFFF" d="M0,47.257V17.755c0-1.55,1.2-2.75,2.75-2.75h5.9c9.65,0,17.451,7.85,17.451,17.451
	c0,9.701-7.8,17.551-17.451,17.551h-5.9C1.2,50.007,0,48.757,0,47.257z M5.55,44.457h3.101c6.6-0.05,11.9-5.35,11.9-12
	c0-6.55-5.3-11.9-11.9-11.9H5.55V44.457z"/>
<path fill="#FFFFFF" d="M29.83,47.257V17.755c0-1.55,1.2-2.75,2.75-2.75h0.05c0,0,0,0,0.1,0h16.201c1.45,0,2.75,1.2,2.75,2.75
	s-1.3,2.8-2.75,2.8H35.38v9.15h11.651c1.5,0,2.75,1.3,2.75,2.75c0,1.55-1.25,2.8-2.75,2.8H35.38v9.2h13.551
	c1.45,0,2.75,1.25,2.75,2.801c0,1.5-1.3,2.75-2.75,2.75H32.73c-0.1,0-0.1-0.05-0.1-0.05l-0.05,0.05
	C31.03,50.007,29.83,48.757,29.83,47.257z"/>
<path fill="#FFFFFF" d="M67.85,49.507c-0.1-0.1-0.2-0.15-0.35-0.25c0-0.05-0.05-0.05-0.05-0.15c-0.1-0.1-0.2-0.199-0.25-0.3
	c0,0-0.05,0-0.05-0.05c-0.05-0.1-0.15-0.301-0.25-0.4l-12.25-29.202c-0.6-1.35,0.05-3,1.5-3.55c1.35-0.6,2.95,0.05,3.55,1.45
	l9.75,23.151l9.75-23.151c0.6-1.4,2.25-2.05,3.6-1.45c1.4,0.55,2.05,2.2,1.5,3.55L71.95,48.357c-0.05,0.1-0.1,0.301-0.2,0.4
	c0,0.05,0,0.05-0.05,0.05c-0.05,0.101-0.2,0.2-0.25,0.3c-0.05,0.101-0.05,0.101-0.1,0.15c-0.1,0.1-0.2,0.15-0.3,0.25
	c0,0,0,0-0.1,0.05s-0.25,0.2-0.4,0.25c-0.05,0-0.05,0-0.1,0.05c-0.15,0-0.25,0.051-0.4,0.101c0,0-0.05,0-0.1,0
	c-0.2,0.05-0.35,0.05-0.5,0.05s-0.35,0-0.5-0.05c0,0-0.05,0-0.1,0c-0.1-0.05-0.3-0.101-0.4-0.101c0-0.05-0.05-0.05-0.05-0.05
	s0,0-0.05,0c-0.1-0.05-0.3-0.2-0.45-0.3C67.9,49.507,67.9,49.507,67.85,49.507z"/>
<path fill="#FFFFFF" d="M86.122,34.624c0,2.164-1.754,3.919-3.919,3.919h-0.162c-2.165,0-3.919-1.755-3.919-3.919v-0.162
	c0-2.165,1.754-3.919,3.919-3.919h0.162c2.165,0,3.919,1.754,3.919,3.919V34.624z"/>
<circle fill="none" stroke="#FFFFFF" stroke-width="0.75" stroke-miterlimit="10" cx="136.642" cy="29.594" r="10.461"/>
<circle fill="none" stroke="#FFFFFF" stroke-width="0.75" stroke-miterlimit="10" cx="136.642" cy="29.594" r="18.671"/>
<path fill="none" stroke="#FFFFFF" stroke-width="0.75" stroke-miterlimit="10" d="M136.642,2.137
	c-12.472,0-22.995,8.319-26.34,19.708c0.639,0.172,1.112,0.75,1.112,1.444c0,0.829-0.672,1.5-1.501,1.5
	c-0.101,0-0.199-0.011-0.295-0.03c-0.279,1.57-0.433,3.184-0.433,4.834c0,15.164,12.293,27.457,27.457,27.457
	s27.457-12.293,27.457-27.457C164.098,14.43,151.805,2.137,136.642,2.137z"/>
<path fill="none" stroke="#FFFFFF" stroke-width="0.75" stroke-miterlimit="10" d="M110.301,21.846
	c-0.125-0.034-0.253-0.057-0.389-0.057c-0.828,0-1.5,0.672-1.5,1.501c0,0.728,0.519,1.333,1.205,1.47"/>
<path fill="none" stroke="#FFFFFF" stroke-width="0.75" stroke-miterlimit="10" d="M109.618,24.76
	c0.096,0.019,0.194,0.03,0.295,0.03c0.829,0,1.501-0.671,1.501-1.5c0-0.694-0.473-1.272-1.112-1.444"/>
<circle fill="none" stroke="#FFFFFF" stroke-width="0.75" stroke-miterlimit="10" cx="129.995" cy="47.045" r="1.292"/>
<path fill="#FFFFFF" d="M150.46,3.742c-3.732-2.053-6.912-2.909-10.654-3.409c-1.042-0.14-4.168-0.829-5.327,0.32
	c-0.929,0.921-0.748,2.135,0,2.876c1.037,1.027,3.662,0.641,4.954,0.799c4.899,0.603,10.263,2.805,14.916,7.458
	c4.772,4.772,6.824,10.155,7.458,14.916c0.188,1.408-0.198,3.966,0.853,5.008c0.435,0.432,1.348,0.841,2.024,0.533
	c1.863-0.851,1.488-2.612,1.385-4.049c-0.492-6.816-3.154-14.344-10.229-20.562C154.213,6.2,152.345,4.779,150.46,3.742z
	 M142.31,9.655c-1.209-0.373-2.457-0.681-3.835-0.852c-0.796-0.1-3.02-0.401-3.889,0.373c-1.048,0.932-0.889,2.213-0.106,2.983
	c0.788,0.775,2.315,0.61,3.409,0.746c3.566,0.441,6.991,1.59,10.387,4.954c3.469,3.435,4.604,6.875,5.008,10.335
	c0.139,1.188-0.146,2.587,0.693,3.463c0.681,0.711,1.872,1.11,2.93,0.053c1.069-1.07,0.576-2.968,0.372-4.422
	c-0.266-1.906-0.635-3.092-1.118-4.421c-1.054-2.892-2.891-6.099-6.073-8.843C147.478,11.773,145.194,10.546,142.31,9.655z
	 M139.487,17.912c-1.362-0.389-3.811-1.237-5.061,0.053c-0.701,0.723-0.778,2.126,0.054,2.93c0.784,0.758,2.138,0.486,3.303,0.746
	c1.074,0.239,2.515,0.775,3.622,1.705c1.808,1.518,2.73,3.339,3.089,4.901c0.286,1.243,0.052,2.697,0.799,3.463
	c0.722,0.739,2.223,0.931,3.143-0.267c0.874-1.138,0.18-3.926-0.266-5.273c-0.597-1.802-2.175-4.123-3.517-5.327
	C142.961,19.322,141.503,18.488,139.487,17.912z M133.521,31.657c1.245,1.689,3.764,2.521,5.753,0.532
	c1.67-1.67,1.461-4.25-0.586-5.7C135.384,24.147,131.154,28.446,133.521,31.657z"/>
<path fill="#FFFFFF" d="M155.841,7.631c7.074,6.218,9.735,13.747,10.228,20.562c0.104,1.437,0.479,3.199-1.385,4.049
	c-0.677,0.308-1.589-0.102-2.024-0.533c-1.051-1.042-0.665-3.6-0.853-5.008c-0.634-4.761-2.686-10.144-7.458-14.916
	c-4.653-4.653-10.016-6.855-14.916-7.458c-1.292-0.159-3.917,0.229-4.954-0.799c-0.748-0.741-0.93-1.955,0-2.876
	c1.158-1.149,4.284-0.459,5.327-0.32c3.742,0.5,6.921,1.356,10.655,3.409C152.345,4.779,154.213,6.2,155.841,7.631z"/>
<path fill="#FFFFFF" d="M150.087,14.023c3.183,2.745,5.02,5.952,6.073,8.843c0.483,1.329,0.853,2.515,1.118,4.421
	c0.203,1.454,0.697,3.352-0.372,4.422c-1.058,1.058-2.249,0.658-2.93-0.053c-0.839-0.876-0.555-2.275-0.693-3.463
	c-0.404-3.46-1.539-6.9-5.008-10.335c-3.396-3.364-6.821-4.513-10.387-4.954c-1.094-0.135-2.622,0.03-3.409-0.746
	c-0.783-0.77-0.942-2.051,0.106-2.983c0.869-0.773,3.092-0.472,3.889-0.373c1.378,0.171,2.626,0.479,3.835,0.852
	C145.194,10.546,147.478,11.773,150.087,14.023z"/>
<path fill="#FFFFFF" d="M144.654,20.842c1.342,1.204,2.92,3.526,3.517,5.327c0.445,1.348,1.14,4.136,0.266,5.274
	c-0.92,1.197-2.421,1.006-3.143,0.267c-0.747-0.766-0.514-2.22-0.799-3.463c-0.359-1.562-1.281-3.383-3.089-4.901
	c-1.107-0.93-2.548-1.465-3.622-1.704c-1.165-0.26-2.519,0.012-3.303-0.746c-0.832-0.804-0.755-2.207-0.054-2.93
	c1.25-1.291,3.698-0.442,5.061-0.054C141.503,18.488,142.961,19.322,144.654,20.842z"/>
<path fill="#FFFFFF" d="M138.688,26.489c2.047,1.451,2.255,4.03,0.586,5.7c-1.989,1.989-4.508,1.157-5.753-0.532
	C131.154,28.446,135.384,24.147,138.688,26.489z"/>
<path fill="#FFFFFF" d="M87.084,32.006c0.05-9.901,8.351-17.951,18.351-18.001c4.4,0,8.4,1.45,11.551,3.9c1.2,1,1.4,2.75,0.5,4
	c-1,1.25-2.85,1.45-4,0.55c-2.2-1.8-4.95-2.75-8.05-2.75c-3.45,0-6.65,1.4-9,3.6c-2.25,2.3-3.65,5.3-3.65,8.701
	c0,3.399,1.4,6.501,3.65,8.7c2.35,2.2,5.55,3.601,9,3.601c3.1,0,5.8-0.95,8.05-2.751c1.15-0.85,3-0.649,4,0.551
	c0.9,1.25,0.7,3.051-0.5,4c-3.15,2.45-7.151,3.9-11.551,3.9C95.435,50.007,87.134,41.957,87.084,32.006z"/>
<path fill="#FFFFFF" d="M199.928,47.257c0,1.5-1.25,2.75-2.699,2.75c-1.551,0-2.75-1.25-2.75-2.75V18.206c0,0,0,0,0-0.05
	c-0.051-0.85,0.35-1.75,1.1-2.3c1.25-0.85,2.95-0.6,3.8,0.6l16.151,22.351V18.206c0-1.45,1.199-2.7,2.7-2.7
	c1.5,0,2.75,1.25,2.75,2.7v29.052c0,1.5-1.25,2.75-2.75,2.75c-0.8,0-1.55-0.4-2.05-1c-0.101-0.1-0.201-0.2-0.25-0.301
	l-16.002-22.201V47.257z"/>
<path fill="#FFFFFF" d="M228.633,47.257V17.755c0-1.55,1.2-2.75,2.75-2.75h0.051c0,0,0,0,0.1,0h16.201c1.449,0,2.75,1.2,2.75,2.75
	s-1.301,2.8-2.75,2.8h-13.551v9.15h11.65c1.5,0,2.75,1.3,2.75,2.75c0,1.55-1.25,2.8-2.75,2.8h-11.65v9.2h13.551
	c1.449,0,2.75,1.25,2.75,2.801c0,1.5-1.301,2.75-2.75,2.75h-16.201c-0.1,0-0.1-0.05-0.1-0.05l-0.051,0.05
	C229.833,50.007,228.633,48.757,228.633,47.257z"/>
<path fill="#FFFFFF" d="M252.177,32.006c0.05-9.901,8.351-17.951,18.351-18.001c4.4,0,8.401,1.45,11.551,3.9c1.2,1,1.4,2.75,0.5,4
	c-1,1.25-2.85,1.45-4,0.55c-2.2-1.8-4.95-2.75-8.051-2.75c-3.45,0-6.65,1.4-9,3.6c-2.25,2.3-3.65,5.3-3.65,8.701
	c0,3.399,1.4,6.501,3.65,8.7c2.35,2.2,5.55,3.601,9,3.601c3.101,0,5.801-0.95,8.051-2.751c1.15-0.85,3-0.649,4,0.551
	c0.9,1.25,0.7,3.051-0.5,4c-3.149,2.45-7.15,3.9-11.551,3.9C260.528,50.007,252.227,41.957,252.177,32.006z"/>
<path fill="#FFFFFF" d="M309.973,20.556h-7.95v26.702c0,1.55-1.2,2.75-2.75,2.75c-1.5,0-2.751-1.2-2.751-2.75V20.556h-7.9
	c-1.55,0-2.75-1.3-2.75-2.8c0-1.55,1.2-2.75,2.75-2.75h21.352c1.5,0,2.75,1.2,2.75,2.75
	C312.723,19.255,311.473,20.556,309.973,20.556z"/>
<path fill="#FFFFFF" d="M316.552,17.755c0-1.55,1.199-2.75,2.75-2.75c1.5,0,2.8,1.2,2.8,2.75v29.502c0,1.55-1.3,2.75-2.8,2.75
	c-1.551,0-2.75-1.2-2.75-2.75V17.755z"/>
<path fill="#FFFFFF" d="M355.693,19.355c3.101,3.3,5.051,7.701,5.051,12.651s-1.95,9.4-5.051,12.651
	c-2.95,3.25-7.351,5.35-11.95,5.35c-4.801,0-9.201-2.1-12.251-5.35c-3.101-3.251-4.95-7.701-4.95-12.651s1.85-9.351,4.95-12.651
	c3.05-3.3,7.45-5.35,12.251-5.35C348.342,14.005,352.743,16.055,355.693,19.355z M355.043,32.006c0-3.4-1.351-6.55-3.4-8.75
	c-2.101-2.25-4.9-3.55-7.9-3.55c-3.2,0-6.001,1.3-8.101,3.55c-2.101,2.2-3.4,5.35-3.4,8.75c0,3.399,1.3,6.55,3.4,8.7
	c2.1,2.25,4.9,3.601,8.101,3.601c3,0,5.8-1.351,7.9-3.601C353.693,38.556,355.043,35.406,355.043,32.006z"/>
<path fill="#FFFFFF" d="M371.747,47.257c0,1.5-1.25,2.75-2.7,2.75c-1.55,0-2.75-1.25-2.75-2.75V18.206c0,0,0,0,0-0.05
	c-0.05-0.85,0.351-1.75,1.101-2.3c1.25-0.85,2.95-0.6,3.8,0.6l16.151,22.351V18.206c0-1.45,1.2-2.7,2.7-2.7s2.75,1.25,2.75,2.7
	v29.052c0,1.5-1.25,2.75-2.75,2.75c-0.8,0-1.55-0.4-2.051-1c-0.1-0.1-0.199-0.2-0.25-0.301l-16.001-22.201V47.257z"/>
<path display="none" fill="#FFFFFF" d="M7.651,49.911V21.635c0-1.486,1.17-2.636,2.681-2.636h5.751
	c9.407,0,17.01,7.524,17.01,16.726c0,9.297-7.603,16.822-17.01,16.822h-5.751C8.821,52.547,7.651,51.349,7.651,49.911z
	 M13.061,47.227h3.022c6.433-0.048,11.6-5.128,11.6-11.502c0-6.278-5.167-11.406-11.6-11.406h-3.022V47.227z"/>
<path display="none" fill="#FFFFFF" d="M35.527,49.911V21.635c0-1.486,1.17-2.636,2.681-2.636h0.048c0,0,0,0,0.098,0h15.792
	c1.414,0,2.681,1.15,2.681,2.636s-1.267,2.684-2.681,2.684H40.938v8.77h11.356c1.462,0,2.681,1.247,2.681,2.636
	c0,1.485-1.219,2.684-2.681,2.684H40.938v8.818h13.208c1.414,0,2.681,1.197,2.681,2.684c0,1.438-1.267,2.637-2.681,2.637H38.354
	c-0.098,0-0.098-0.048-0.098-0.048l-0.048,0.048C36.697,52.547,35.527,51.349,35.527,49.911z"/>
<path display="none" fill="#FFFFFF" d="M72.343,52.068c-0.098-0.096-0.195-0.145-0.341-0.24c0-0.047-0.048-0.047-0.048-0.144
	c-0.098-0.096-0.195-0.191-0.244-0.287c0,0-0.049,0-0.049-0.048c-0.048-0.096-0.146-0.289-0.244-0.384L59.476,22.977
	c-0.584-1.294,0.049-2.875,1.462-3.403c1.316-0.575,2.875,0.048,3.46,1.39l9.504,22.189l9.504-22.189
	c0.585-1.342,2.193-1.965,3.509-1.39c1.365,0.527,1.999,2.109,1.462,3.403L76.34,50.965c-0.049,0.095-0.098,0.288-0.195,0.384
	c0,0.048,0,0.048-0.049,0.048c-0.049,0.096-0.195,0.191-0.244,0.287c-0.049,0.097-0.049,0.097-0.098,0.144
	c-0.097,0.096-0.195,0.145-0.292,0.24c0,0,0,0-0.097,0.048c-0.098,0.048-0.244,0.191-0.39,0.239c-0.049,0-0.049,0-0.098,0.048
	c-0.146,0-0.244,0.049-0.39,0.097c0,0-0.049,0-0.098,0c-0.195,0.048-0.341,0.048-0.487,0.048c-0.146,0-0.341,0-0.487-0.048
	c0,0-0.049,0-0.098,0c-0.097-0.048-0.292-0.097-0.39-0.097c0-0.048-0.049-0.048-0.049-0.048s0,0-0.049,0
	c-0.098-0.048-0.292-0.191-0.438-0.287C72.392,52.068,72.392,52.068,72.343,52.068z"/>
<path display="none" fill="#FFFFFF" d="M118.693,48.808c-3.071,2.349-6.97,3.739-11.259,3.739c-9.749,0-17.839-7.717-17.887-17.254
	c0.048-9.489,8.139-17.205,17.887-17.253c4.289,0,8.188,1.39,11.259,3.738c1.169,0.958,1.364,2.636,0.487,3.834
	c-0.975,1.198-2.779,1.39-3.899,0.527c-2.145-1.725-4.825-2.636-7.847-2.636c-3.363,0-6.482,1.342-8.773,3.451
	c-2.194,2.205-3.559,5.08-3.559,8.339s1.365,6.231,3.559,8.339c2.291,2.109,7.513,3.675,10.875,3.675"/>
<path display="none" fill="#FFFFFF" d="M166.239,49.911c0,1.438-1.219,2.637-2.631,2.637c-1.512,0-2.682-1.198-2.682-2.637V22.066
	c0,0,0,0,0-0.048c-0.049-0.815,0.342-1.677,1.072-2.204c1.219-0.815,2.876-0.575,3.704,0.575l15.743,21.422V22.066
	c0-1.39,1.17-2.588,2.632-2.588s2.681,1.198,2.681,2.588v27.844c0,1.438-1.219,2.637-2.681,2.637c-0.779,0-1.511-0.384-1.999-0.959
	c-0.097-0.096-0.194-0.191-0.243-0.288l-15.597-21.279V49.911z"/>
<path display="none" fill="#FFFFFF" d="M199.54,49.911c0,1.438-1.218,2.637-2.632,2.637c-1.511,0-2.681-1.198-2.681-2.637V22.066
	c0,0,0,0,0-0.048c-0.048-0.815,0.342-1.677,1.073-2.204c1.219-0.815,2.876-0.575,3.704,0.575l15.743,21.422V22.066
	c0-1.39,1.169-2.588,2.632-2.588c1.462,0,2.68,1.198,2.68,2.588v27.844c0,1.438-1.218,2.637-2.68,2.637
	c-0.78,0-1.511-0.384-1.999-0.959c-0.098-0.096-0.194-0.191-0.244-0.288L199.54,30.021V49.911z"/>
<path display="none" fill="#FFFFFF" d="M227.518,49.911V21.635c0-1.486,1.17-2.636,2.681-2.636h0.05c0,0,0,0,0.097,0h15.792
	c1.413,0,2.681,1.15,2.681,2.636s-1.268,2.684-2.681,2.684h-13.208v8.771h11.355c1.462,0,2.681,1.246,2.681,2.636
	c0,1.485-1.219,2.684-2.681,2.684h-11.355v8.818h13.208c1.413,0,2.681,1.197,2.681,2.684c0,1.438-1.268,2.637-2.681,2.637h-15.792
	c-0.097,0-0.097-0.048-0.097-0.048l-0.05,0.048C228.688,52.547,227.518,51.349,227.518,49.911z"/>
<path display="none" fill="#FFFFFF" d="M273.149,24.259C273.149,24.259,275.458,25.065,273.149,24.259
	c-2.311-0.806-4.794-0.755-4.794-0.755c-3.363,0-6.482,1.342-8.772,3.451c-2.193,2.205-3.559,5.08-3.559,8.339
	s1.365,6.231,3.559,8.339c2.29,2.109,5.409,3.451,8.772,3.451c3.022,0,5.654-0.911,7.848-2.637c1.121-0.814,2.924-0.622,3.898,0.528
	c0.878,1.197,0.683,2.924-0.487,3.833c-3.07,2.349-6.97,3.739-11.259,3.739c-9.747,0-17.838-7.717-17.887-17.254
	c0.049-9.489,8.14-17.205,17.887-17.253c4.289,0,8.188,1.39,11.259,3.738L273.149,24.259z"/>
<path display="none" fill="#FFFFFF" d="M306.803,24.319h-7.749v25.592c0,1.486-1.17,2.637-2.681,2.637
	c-1.462,0-2.682-1.15-2.682-2.637V24.319h-7.7c-1.511,0-2.681-1.247-2.681-2.684c0-1.486,1.17-2.636,2.681-2.636h20.812
	c1.462,0,2.681,1.15,2.681,2.636C309.484,23.072,308.265,24.319,306.803,24.319z"/>
<path display="none" fill="#FFFFFF" d="M313.216,21.635c0-1.486,1.169-2.636,2.68-2.636c1.463,0,2.729,1.15,2.729,2.636v28.276
	c0,1.486-1.267,2.637-2.729,2.637c-1.511,0-2.68-1.15-2.68-2.637V21.635z"/>
<path display="none" fill="#FFFFFF" d="M351.367,23.168c3.022,3.163,4.924,7.381,4.924,12.125c0,4.745-1.901,9.01-4.924,12.126
	c-2.875,3.115-7.164,5.128-11.647,5.128c-4.68,0-8.969-2.013-11.941-5.128c-3.022-3.116-4.825-7.381-4.825-12.126
	c0-4.744,1.803-8.962,4.825-12.125c2.973-3.163,7.262-5.128,11.941-5.128C344.203,18.041,348.492,20.005,351.367,23.168z
	 M350.734,35.293c0-3.259-1.316-6.278-3.314-8.387c-2.047-2.157-4.776-3.403-7.7-3.403c-3.119,0-5.85,1.246-7.896,3.403
	c-2.047,2.109-3.314,5.128-3.314,8.387s1.268,6.278,3.314,8.339c2.047,2.156,4.777,3.451,7.896,3.451c2.924,0,5.653-1.295,7.7-3.451
	C349.417,41.572,350.734,38.552,350.734,35.293z"/>
<path display="none" fill="#FFFFFF" d="M367.015,49.911c0,1.438-1.219,2.637-2.632,2.637c-1.511,0-2.681-1.198-2.681-2.637V22.066
	c0,0,0,0,0-0.048c-0.049-0.815,0.342-1.677,1.073-2.204c1.218-0.815,2.875-0.575,3.703,0.575l15.743,21.422V22.066
	c0-1.39,1.17-2.588,2.632-2.588s2.681,1.198,2.681,2.588v27.844c0,1.438-1.219,2.637-2.681,2.637c-0.779,0-1.511-0.384-1.999-0.959
	c-0.097-0.096-0.194-0.191-0.243-0.288l-15.597-21.279V49.911z"/>
<path display="none" fill="#FFFFFF" d="M20.354,47.245H38.98c1.994,0,3.781,1.198,3.781,2.684c0,1.438-1.787,2.636-3.781,2.636
	H16.711c-0.138,0-0.138-0.047-0.138-0.047l-0.068,0.047c-2.131,0-3.781-1.198-3.781-2.636
	C12.725,49.928,12.216,46.937,20.354,47.245z"/>
<path display="none" fill="#FFFFFF" d="M44.787,18.97h17.2c1.84,0,3.491,1.198,3.491,2.684c0,1.438-1.651,2.636-3.491,2.636H41.424
	c-0.127,0-0.127-0.047-0.127-0.047l-0.063,0.047c-1.969,0-3.492-1.198-3.492-2.636C37.742,21.654,37.273,18.662,44.787,18.97z"/>
<path display="none" fill="#FFFFFF" d="M112.61,47.245h22.265c2.381,0,4.518,1.198,4.518,2.684c0,1.438-2.137,2.636-4.518,2.636
	h-26.618c-0.165,0-0.165-0.047-0.165-0.047l-0.082,0.047c-2.548,0-4.519-1.198-4.519-2.636
	C103.492,49.928,102.884,46.937,112.61,47.245z"/>
<path display="none" fill="#FFFFFF" d="M139.171,47.245h22.265c2.382,0,4.518,1.198,4.518,2.684c0,1.438-2.136,2.636-4.518,2.636
	h-26.618c-0.164,0-0.164-0.047-0.164-0.047l-0.081,0.047c-2.549,0-4.52-1.198-4.52-2.636
	C130.053,49.928,129.446,46.937,139.171,47.245z"/>
<path display="none" fill="#FFFFFF" d="M81.772,33.555h10.571c1.131,0,2.145,1.197,2.145,2.684c0,1.438-1.014,2.636-2.145,2.636
	H79.705c-0.077,0-0.077-0.048-0.077-0.048l-0.04,0.048c-1.21,0-2.146-1.198-2.146-2.636C77.442,36.239,77.154,33.246,81.772,33.555z
	"/>
<path display="none" fill="#FFFFFF" d="M219.435,19.054h11.334c1.213,0,2.3,1.198,2.3,2.684c0,1.438-1.087,2.636-2.3,2.636h-13.551
	c-0.083,0-0.083-0.048-0.083-0.048l-0.042,0.048c-1.297,0-2.301-1.198-2.301-2.636C214.792,21.738,214.484,18.746,219.435,19.054z"
	/>
<path display="none" fill="#FFFFFF" d="M247.945,47.208h18.169c1.943,0,3.687,1.198,3.687,2.684c0,1.438-1.743,2.636-3.687,2.636
	h-21.723c-0.133,0-0.133-0.047-0.133-0.047l-0.066,0.047c-2.08,0-3.688-1.197-3.688-2.636
	C240.504,49.892,240.008,46.901,247.945,47.208z"/>
<path display="none" fill="#FFFFFF" d="M276.048,18.997h12.453c1.332,0,2.526,1.198,2.526,2.684c0,1.438-1.194,2.636-2.526,2.636
	h-14.889c-0.091,0-0.091-0.048-0.091-0.048l-0.046,0.048c-1.426,0-2.527-1.198-2.527-2.636
	C270.949,21.681,270.609,18.689,276.048,18.997z"/>
<path display="none" fill="#FFFFFF" d="M344.929,47.329h18.17c1.942,0,3.686,1.198,3.686,2.684c0,1.438-1.743,2.636-3.686,2.636
	h-21.723c-0.134,0-0.134-0.047-0.134-0.047l-0.066,0.047c-2.08,0-3.688-1.198-3.688-2.636
	C337.489,50.012,336.993,47.021,344.929,47.329z"/>
<path display="none" fill="#FFFFFF" d="M44.787,47.084h17.2c1.84,0,3.491,1.198,3.491,2.685c0,1.438-1.651,2.636-3.491,2.636H41.424
	c-0.127,0-0.127-0.049-0.127-0.049l-0.063,0.049c-1.969,0-3.492-1.198-3.492-2.636C37.742,49.769,37.273,46.777,44.787,47.084z"/>
<circle display="none" fill="none" stroke="#000000" stroke-width="0.5505" stroke-miterlimit="10" cx="136.635" cy="28.679" r="7.678"/>
<circle display="none" fill="none" stroke="#000000" stroke-width="0.5505" stroke-miterlimit="10" cx="136.635" cy="28.679" r="13.703"/>
<circle display="none" fill="none" stroke="#000000" stroke-width="0.5505" stroke-miterlimit="10" cx="136.635" cy="28.678" r="20.151"/>
<circle display="none" fill="#FFFFFF" stroke="#000000" stroke-width="0.5505" stroke-miterlimit="10" cx="117.018" cy="24.052" r="1.101"/>
<circle display="none" fill="#FFFFFF" stroke="#000000" stroke-width="0.5505" stroke-miterlimit="10" cx="131.757" cy="41.487" r="0.948"/>
<path display="none" fill="#FFFFFF" d="M146.778,9.705c-2.739-1.507-5.073-2.135-7.82-2.502c-0.764-0.103-3.059-0.608-3.908,0.235
	c-0.683,0.676-0.549,1.567,0,2.111c0.76,0.754,2.688,0.47,3.635,0.586c3.596,0.442,7.533,2.059,10.947,5.474
	c3.503,3.502,5.009,7.453,5.475,10.947c0.138,1.033-0.146,2.911,0.626,3.676c0.318,0.316,0.988,0.618,1.485,0.392
	c1.367-0.625,1.093-1.918,1.017-2.973c-0.361-5.002-2.315-10.528-7.508-15.092C149.532,11.509,148.161,10.466,146.778,9.705z
	 M140.795,14.045c-0.888-0.274-1.803-0.5-2.814-0.625c-0.584-0.073-2.216-0.295-2.854,0.273c-0.77,0.684-0.653,1.625-0.078,2.189
	c0.578,0.569,1.699,0.448,2.502,0.547c2.617,0.324,5.131,1.167,7.623,3.636c2.546,2.521,3.379,5.046,3.676,7.586
	c0.102,0.872-0.107,1.898,0.509,2.541c0.499,0.521,1.374,0.815,2.15,0.039c0.785-0.786,0.423-2.179,0.273-3.246
	c-0.195-1.398-0.467-2.269-0.821-3.244c-0.773-2.123-2.121-4.476-4.457-6.491C144.588,15.599,142.913,14.699,140.795,14.045z
	 M138.723,20.105c-0.999-0.285-2.796-0.908-3.713,0.039c-0.516,0.531-0.572,1.561,0.039,2.151c0.575,0.556,1.568,0.356,2.424,0.547
	c0.789,0.175,1.846,0.569,2.658,1.251c1.328,1.114,2.004,2.451,2.268,3.597c0.209,0.913,0.039,1.979,0.587,2.542
	c0.53,0.542,1.631,0.682,2.306-0.196c0.643-0.835,0.133-2.881-0.194-3.87c-0.438-1.322-1.597-3.026-2.581-3.91
	C141.274,21.14,140.204,20.528,138.723,20.105z M134.345,30.193c0.914,1.241,2.763,1.85,4.222,0.391
	c1.227-1.226,1.072-3.119-0.43-4.184C135.711,24.682,132.608,27.837,134.345,30.193z"/>
<path display="none" d="M150.727,12.559c5.192,4.564,7.146,10.09,7.507,15.092c0.076,1.055,0.352,2.348-1.017,2.973
	c-0.497,0.226-1.166-0.075-1.485-0.392c-0.771-0.765-0.488-2.643-0.626-3.676c-0.466-3.494-1.972-7.445-5.475-10.947
	c-3.414-3.415-7.35-5.031-10.946-5.474c-0.948-0.116-2.876,0.168-3.636-0.586c-0.549-0.544-0.683-1.435,0-2.111
	c0.85-0.843,3.145-0.337,3.91-0.235c2.745,0.367,5.079,0.995,7.819,2.502C148.161,10.466,149.532,11.509,150.727,12.559z"/>
<path display="none" d="M146.504,17.251c2.336,2.015,3.684,4.368,4.457,6.491c0.354,0.975,0.626,1.846,0.821,3.244
	c0.148,1.067,0.512,2.46-0.273,3.246c-0.776,0.776-1.651,0.482-2.15-0.039c-0.616-0.643-0.407-1.669-0.509-2.541
	c-0.297-2.54-1.13-5.065-3.676-7.586c-2.492-2.469-5.006-3.312-7.623-3.636c-0.803-0.1-1.924,0.022-2.502-0.547
	c-0.575-0.565-0.691-1.505,0.078-2.189c0.638-0.568,2.27-0.347,2.854-0.273c1.012,0.125,1.927,0.351,2.814,0.625
	C142.913,14.699,144.588,15.599,146.504,17.251z"/>
<path display="none" d="M142.516,22.255c0.984,0.885,2.143,2.588,2.581,3.911c0.327,0.989,0.837,3.035,0.194,3.87
	c-0.675,0.878-1.776,0.738-2.306,0.196c-0.548-0.562-0.378-1.629-0.587-2.542c-0.264-1.146-0.939-2.482-2.268-3.597
	c-0.812-0.683-1.869-1.076-2.658-1.251c-0.855-0.191-1.849,0.008-2.424-0.548c-0.611-0.59-0.555-1.62-0.039-2.15
	c0.917-0.947,2.714-0.325,3.713-0.039C140.204,20.528,141.274,21.14,142.516,22.255z"/>
<path display="none" d="M138.137,26.4c1.502,1.064,1.656,2.958,0.43,4.184c-1.459,1.459-3.308,0.85-4.222-0.391
	C132.608,27.837,135.711,24.682,138.137,26.4z"/>
</svg>
